<svg width="220" height="220" viewBox="0 0 220 220" fill="none" xmlns="http://www.w3.org/2000/svg">
<path d="M68.0195 80.7847C69.4057 84.9316 73.0698 88.92 75.395 92.6656" stroke="black" stroke-width="18.1406" stroke-linecap="round"/>
<path d="M141.775 63.8132C145.188 68.2893 148.155 72.6861 150.995 77.3914" stroke="black" stroke-width="18.1406" stroke-linecap="round"/>
<path d="M92.0078 123.221C103.244 135.533 116.626 154.7 132.163 135.101C137.788 128.005 139.948 114.995 139.948 106.248" stroke="black" stroke-width="18.1406" stroke-linecap="round"/>
<path d="M53.2722 29.867C41.4899 31.4824 27.3451 36.1002 18.7512 44.011C14.3717 48.0423 14.0792 56.0871 12.7074 61.3609C8.86047 76.1502 9.60797 94.271 11.8879 109.262C13.9772 122.999 19.7803 134.637 25.6144 147.167C35.635 168.69 44.626 185.722 66.7938 198.84C90.6248 212.942 129.195 211.912 155.401 205.44C189.294 197.07 210 182.927 210 149.43C210 122.983 202.341 96.8584 194.327 71.4502C190.21 58.3947 183.117 45.5621 175.889 33.7331C171.978 27.3338 160.828 14.9892 152.431 13.2715C134 9.50147 108.749 8.81096 90.1494 12.14C81.6102 13.6684 36.6775 19.2192 36.6775 28.1698" stroke="black" stroke-width="18.1406" stroke-linecap="round"/>
</svg>
