<svg width="20" height="20" viewBox="0 0 20 20" fill="none" xmlns="http://www.w3.org/2000/svg">
<path fill-rule="evenodd" clip-rule="evenodd" d="M9.95692 18.1585C14.4226 18.1585 18.0427 14.5383 18.0427 10.0726C18.0427 5.60696 14.4226 1.98682 9.95692 1.98682C5.49124 1.98682 1.87109 5.60696 1.87109 10.0726C1.87109 14.5383 5.49124 18.1585 9.95692 18.1585ZM9.95693 4.16975L15.5034 8.35745L13.2759 14.6835H6.5043L4.56638 8.3129L9.95693 4.16975Z" fill="#A0A0A0"/>
<path fill-rule="evenodd" clip-rule="evenodd" d="M8.66857 0.201305C8.2245 0.237925 7.41769 0.399865 6.9215 0.552003C5.98457 0.839217 5.29756 1.3245 5.04175 1.87973C4.89233 2.20392 4.8599 2.60563 4.95951 2.89796C5.08577 3.26844 5.02701 3.3485 4.78635 3.13385C4.64299 3.00604 4.27995 2.86945 4.00779 2.84103C3.34547 2.7718 2.59524 3.23917 1.9478 4.12442C1.69293 4.47294 1.35101 5.01881 1.22658 5.27591C1.10576 5.52548 0.679104 6.57338 0.618961 6.76833C0.588712 6.86634 0.546924 6.99665 0.526164 7.05791C0.346761 7.58667 0.146865 8.42978 0.0614626 9.01811C-0.0206876 9.5843 -0.0204648 10.6212 0.0619972 11.0131C0.281451 12.0563 0.849686 12.6234 1.6981 12.6459C1.84101 12.6496 1.95488 12.6719 1.95123 12.6954C1.94753 12.7188 1.88743 12.7802 1.81762 12.8317C1.41823 13.1263 1.15392 13.6365 1.15713 14.1065C1.16078 14.6502 1.42483 15.2954 1.91884 15.9679C2.2466 16.414 3.00038 17.1823 3.47212 17.5509C3.65589 17.6944 3.81627 17.8244 3.82852 17.8395C3.87187 17.893 4.70308 18.4566 5.12047 18.7154C5.62384 19.0276 5.87773 19.1536 6.50143 19.4005C7.25068 19.6973 7.56364 19.7669 8.17215 19.7722C8.76319 19.7774 8.98456 19.7215 9.34582 19.4754C9.55685 19.3317 9.85832 18.904 9.93945 18.6332C9.99104 18.461 10.0655 18.4025 10.0655 18.5342C10.0655 18.5735 10.1387 18.7449 10.2282 18.9151C10.4936 19.4203 10.8774 19.6836 11.4732 19.7695C12.7339 19.9511 14.7631 19.0475 16.6821 17.4498C18.4338 15.9915 19.2261 14.4554 18.7381 13.4637C18.6243 13.2324 18.3381 12.9009 18.1402 12.7712C18.0851 12.7351 18.04 12.6906 18.04 12.6725C18.04 12.6543 18.1968 12.6287 18.3885 12.6155C18.9952 12.5739 19.4362 12.2638 19.7219 11.6777C19.9272 11.2567 20.0002 10.825 20 10.0335C19.9998 9.27294 19.9339 8.77322 19.7279 7.97118C19.1661 5.78347 18.2294 4.03216 17.2148 3.27263C16.5223 2.75424 15.8989 2.69851 15.2397 3.09603C15.0807 3.19199 14.9409 3.26091 14.9292 3.24919C14.9175 3.23748 14.9437 3.09576 14.9874 2.93423C15.1305 2.40551 14.9998 1.85767 14.6339 1.45263C14.0746 0.833559 12.7628 0.350192 11.2302 0.198365C10.7031 0.146152 9.31855 0.147756 8.66857 0.201305ZM8.35668 1.41806C9.78593 1.67386 10.041 1.67792 11.2961 1.46506C13.1256 1.15472 13.9831 1.22453 14.5133 1.72692C14.8145 2.01231 14.939 2.44137 14.8731 2.96639C14.8295 3.31317 14.7652 3.46816 14.6854 3.41884C14.656 3.40066 14.5216 3.31286 14.3869 3.22367C14.0212 2.98163 13.3296 2.63151 12.8626 2.45202C11.9396 2.09713 11.046 1.93283 10.029 1.93087C9.0104 1.92896 8.25301 2.04911 7.30342 2.36332C6.86639 2.50793 5.9871 2.94318 5.56597 3.22336C5.17478 3.48357 5.15763 3.47649 5.07837 3.02132C4.98513 2.48601 5.15139 1.96575 5.51024 1.66972C5.70132 1.51215 6.06529 1.36264 6.39015 1.30837C6.75724 1.24703 7.69243 1.2992 8.35668 1.41806ZM4.71952 3.20153C4.97368 3.3305 5.12047 3.43867 5.12047 3.49703C5.12047 3.51565 5.01525 3.61397 4.88659 3.7155C3.63691 4.70193 2.63721 6.20282 2.18547 7.77071C1.94147 8.61774 1.89764 8.95267 1.89394 9.99821C1.89046 10.9991 1.9372 11.4097 2.13647 12.1288C2.27101 12.6144 2.27858 12.5999 1.90828 12.5655C0.915843 12.4733 0.401557 11.8318 0.535876 10.8537C0.608938 10.3214 0.761165 9.92644 1.32904 8.79536C1.93818 7.58222 2.01119 7.3805 2.13558 6.56786C2.39138 4.89665 2.46975 4.55763 2.72123 4.03466C2.93552 3.58902 3.1919 3.29593 3.4944 3.15078C3.68783 3.05794 3.767 3.04609 4.09582 3.06053C4.40077 3.07394 4.52221 3.10138 4.71952 3.20153ZM16.4829 3.16085C16.8665 3.35527 17.1427 3.71207 17.3733 4.31109C17.5154 4.68023 17.6444 5.28776 17.8194 6.41193C17.9499 7.25045 18.0753 7.63015 18.4739 8.39441C18.9625 9.33099 19.004 9.41371 19.1335 9.70864C19.7123 11.027 19.594 11.9434 18.7921 12.3522C18.502 12.5001 18.0584 12.5903 17.833 12.5472C17.7202 12.5257 17.6954 12.4146 17.7715 12.2724C17.7954 12.2278 17.8691 11.9335 17.9354 11.6182C18.0455 11.0944 18.0559 10.959 18.0567 10.0428C18.0576 9.12507 18.0476 8.99334 17.9392 8.48351C17.6515 7.12981 17.1479 6.03718 16.3306 4.99302C16.0444 4.62739 15.3754 3.95625 15.0185 3.6767L14.826 3.52589L14.8516 3.67696C14.8657 3.76005 14.9178 4.15882 14.9675 4.56311C15.0172 4.9674 15.087 5.50868 15.1227 5.76596C15.1583 6.02323 15.2474 6.6848 15.3205 7.23611C15.4398 8.13531 15.4679 8.26602 15.5936 8.50578C15.7485 8.80088 16.9615 11.2261 17.2537 11.8248C17.3554 12.033 17.4497 12.2135 17.4634 12.2257C17.5023 12.2607 17.6084 12.5387 17.5894 12.5558C17.5799 12.5642 17.3918 12.6565 17.1713 12.7607C16.9507 12.865 16.5197 13.0705 16.2134 13.2174C15.9071 13.3642 15.451 13.5821 15.1999 13.7015C14.9488 13.8209 14.5278 14.0212 14.2644 14.1465C14.0009 14.2718 13.6852 14.42 13.5627 14.4757C13.4208 14.5403 13.3299 14.5952 13.1874 14.7292C13.0895 14.8213 12.9674 14.9506 12.7877 15.1459C12.6309 15.3162 12.3302 15.6362 12.1194 15.857C11.7178 16.2776 10.8051 17.2487 10.3299 17.7611C10.1765 17.9264 10.0341 18.0618 10.0135 18.0618C9.99286 18.0618 9.58162 17.6758 9.09964 17.2042C8.61765 16.7325 8.08946 16.2163 7.92588 16.057C7.76233 15.8977 7.39836 15.5419 7.11712 15.2662C6.83587 14.9906 6.58399 14.7651 6.55734 14.7651C6.52658 14.7503 6.52658 14.7503 6.49408 14.7292C6.48593 14.7096 6.26875 14.5863 6.01147 14.4554C5.7542 14.3245 5.42341 14.1528 5.2764 14.0737C5.12938 13.9947 4.54801 13.6947 3.98445 13.407C2.59039 12.6952 2.35837 12.5695 2.35837 12.5258C2.35837 12.5051 2.41571 12.384 2.48579 12.2567C2.55582 12.1294 2.71869 11.8248 2.84767 11.5797C2.97668 11.3347 3.11728 11.0741 3.16014 11.0006C3.20304 10.9271 3.31798 10.7166 3.41559 10.5328C3.5132 10.349 3.82612 9.76766 4.11092 9.24086C4.48278 8.55301 4.63515 8.22655 4.65149 8.08256C4.66401 7.9723 4.6854 7.78185 4.69903 7.65933C4.71266 7.53682 4.74211 7.29625 4.76443 7.12473C4.80657 6.80099 4.8595 6.36836 5.07111 4.61795C5.14003 4.0478 5.20784 3.56987 5.22182 3.55592C5.23581 3.54193 5.68483 3.59174 6.21966 3.66663C6.75448 3.74152 7.34241 3.82362 7.52617 3.84906C7.70994 3.87445 8.30134 3.95696 8.8404 4.03238C9.37945 4.10776 9.88064 4.16853 9.95415 4.16741C10.0891 4.16532 11.0644 4.03002 12.4224 3.825C13.5218 3.65901 14.0109 3.58728 14.4284 3.53075C14.7175 3.49164 14.8493 3.4494 15.0003 3.34747C15.4793 3.02422 16.0672 2.95022 16.4829 3.16085ZM6.79333 8.61026C6.81658 8.63097 7.1965 8.89489 7.63755 9.1968C8.07859 9.49867 8.46346 9.77484 8.49282 9.81048C8.53167 9.85761 8.54013 10.0827 8.52396 10.6384C8.51175 11.0581 8.51781 11.4216 8.53741 11.4461C8.55706 11.4706 8.86379 11.7104 9.21907 11.9789C9.57436 12.2475 9.89156 12.4931 9.9239 12.5247C10.004 12.6028 10.0771 12.5968 10.1796 12.5036C10.2272 12.4604 10.5467 12.2159 10.8897 11.9603C11.2327 11.7047 11.5286 11.4744 11.5471 11.4485C11.5657 11.4227 11.5785 11.3614 11.5756 11.3124C11.5727 11.2634 11.5726 10.9023 11.5753 10.51C11.5799 9.84264 11.586 9.79377 11.6696 9.75261C11.7188 9.72842 12.1186 9.46807 12.558 9.17404L13.3569 8.63943L12.4658 8.60135C11.9757 8.58036 11.5645 8.5735 11.5519 8.58606C11.5394 8.59863 11.5174 9.25226 11.5032 10.0386L11.4772 11.4684H10.0363H8.59537V10.0205V8.57261H7.67319C7.16599 8.57261 6.77007 8.58954 6.79333 8.61026ZM2.39767 12.9419C2.90905 14.2986 4.031 15.7573 5.21282 16.6021C6.49083 17.5157 7.89264 18.0081 9.5687 18.1322L9.98511 18.163L9.96083 18.2844C9.91103 18.5335 9.69411 18.91 9.4911 19.1C9.28082 19.2966 8.87301 19.4874 8.66273 19.4874C8.25212 19.4874 7.62668 19.2216 7.15774 18.8479C6.99451 18.7179 6.49814 18.256 6.05464 17.8215C5.58776 17.3641 5.11825 16.9474 4.93942 16.8317C4.76955 16.7218 4.24462 16.4401 3.77288 16.2056C2.62438 15.6347 2.03895 15.234 1.67333 14.7682C1.2289 14.2022 1.34321 13.3934 1.94397 12.853C2.08341 12.7276 2.21826 12.6319 2.24361 12.6404C2.269 12.6488 2.33832 12.7845 2.39767 12.9419ZM18.0689 12.8308C18.3576 13.0775 18.5311 13.3603 18.6006 13.6978C18.7062 14.2104 18.554 14.5956 18.0532 15.0833C17.672 15.4544 17.3009 15.6872 16.2475 16.2158C15.7264 16.4773 15.19 16.7641 15.0553 16.8531C14.9206 16.942 14.408 17.4077 13.9163 17.8878C13.4092 18.3829 12.8788 18.8572 12.691 18.9835C11.7617 19.6085 11.0418 19.6285 10.4957 19.0447C10.2975 18.8328 10.0655 18.4009 10.0655 18.2438C10.0655 18.1405 10.1824 18.1078 10.5556 18.1066C11.1898 18.1047 12.2937 17.8448 13.1165 17.5037C14.2434 17.0366 15.3909 16.1905 16.1989 15.2307C16.7114 14.622 17.2806 13.6578 17.5324 12.9719C17.6857 12.5545 17.7314 12.5425 18.0689 12.8308Z" fill="#A0A0A0"/>
</svg>
