<svg xmlns="http://www.w3.org/2000/svg" width="20" height="16" viewBox="0 0 20 16" fill="none">
<path id="Vector 35" d="M8.12792 6.26835C7.2826 4.00999 5.2054 4.62937 3.15868 4.62937C2.76759 4.62937 1.93298 4.43596 1.87036 4.99359C1.78853 5.72225 1.51308 6.40817 1.50227 7.17889C1.47711 8.97098 1.6423 10.0491 2.97463 11.3674C4.01155 12.3934 5.26535 13.1063 6.47151 13.9169C6.88717 14.1963 7.2983 14.691 7.78028 14.4228C10.7104 12.7919 13.8314 11.4006 16.5122 9.3642C17.382 8.70353 17.9048 8.30398 18.2505 7.32053C18.5763 6.39374 18.4345 5.31576 18.4345 4.34609C18.4345 3.70621 18.6838 2.44358 18.2096 1.93821C17.676 1.36962 16.5613 1.50726 15.8579 1.53352C14.685 1.57731 13.8211 2.59808 13.0972 3.39508C12.1202 4.47064 11.1061 5.45792 10.0502 6.45046C9.79598 6.6894 9.79091 6.93644 9.60029 7.21936C9.34217 7.60247 8.86502 7.90553 8.68006 8.27154" stroke="white" stroke-width="1.20834" stroke-linecap="round"/>
</svg>