<svg width="19" height="19" viewBox="0 0 19 19" fill="none" xmlns="http://www.w3.org/2000/svg">
<path d="M9.52018 0.200195C6.97814 0.200195 6.65938 0.210979 5.66103 0.256512C4.66477 0.301962 3.98436 0.460212 3.38898 0.691555C2.77348 0.930756 2.25149 1.25082 1.73115 1.77117C1.21079 2.29151 0.890717 2.81355 0.651544 3.42905C0.420145 4.0244 0.26195 4.70481 0.216445 5.70107C0.170912 6.69942 0.160156 7.01818 0.160156 9.56022C0.160156 12.1022 0.170912 12.421 0.216445 13.4193C0.26195 14.4156 0.420145 15.096 0.651544 15.6913C0.890745 16.3068 1.21081 16.8288 1.73115 17.3492C2.25152 17.8696 2.77348 18.1896 3.38898 18.4288C3.98436 18.6602 4.66477 18.8184 5.66103 18.8639C6.65938 18.9094 6.97814 18.9202 9.52018 18.9202C12.0622 18.9202 12.3809 18.9094 13.3793 18.8639C14.3755 18.8184 15.0559 18.6602 15.6513 18.4288C16.2668 18.1896 16.7888 17.8696 17.3092 17.3492C17.8295 16.8288 18.1496 16.3068 18.3888 15.6913C18.6201 15.096 18.7784 14.4156 18.8238 13.4193C18.8694 12.421 18.8802 12.1022 18.8802 9.56022C18.8802 7.01818 18.8694 6.69942 18.8238 5.70107C18.7784 4.70481 18.6201 4.0244 18.3888 3.42905C18.1496 2.81355 17.8295 2.29151 17.3092 1.77117C16.7888 1.25082 16.2668 0.930756 15.6513 0.691555C15.0559 0.460212 14.3755 0.301962 13.3793 0.256512C12.3809 0.210979 12.0622 0.200195 9.52018 0.200195ZM9.52018 1.88667C12.0194 1.88667 12.3154 1.89623 13.3024 1.94126C14.215 1.98286 14.7106 2.13534 15.0404 2.26353C15.4773 2.43334 15.7891 2.63615 16.1166 2.96369C16.4442 3.29122 16.647 3.60304 16.8168 4.03993C16.945 4.36975 17.0975 4.86537 17.1391 5.77795C17.1841 6.76494 17.1937 7.06098 17.1937 9.56019C17.1937 12.0594 17.1841 12.3555 17.1391 13.3424C17.0975 14.255 16.945 14.7506 16.8168 15.0804C16.647 15.5174 16.4442 15.8292 16.1166 16.1567C15.7891 16.4842 15.4773 16.687 15.0404 16.8569C14.7106 16.985 14.215 17.1375 13.3024 17.1791C12.3156 17.2242 12.0196 17.2337 9.52016 17.2337C7.02075 17.2337 6.72478 17.2242 5.73791 17.1791C4.8253 17.1375 4.32971 16.985 3.99991 16.8569C3.56298 16.687 3.25118 16.4842 2.92368 16.1567C2.59614 15.8292 2.3933 15.5173 2.22349 15.0805C2.09531 14.7506 1.94285 14.255 1.90122 13.3424C1.85619 12.3555 1.84663 12.0594 1.84663 9.56019C1.84663 7.06098 1.85619 6.76494 1.90122 5.77795C1.94285 4.86534 2.09531 4.36975 2.22349 4.03995C2.3933 3.60302 2.59614 3.29122 2.92365 2.96372C3.25118 2.63615 3.563 2.43334 3.99989 2.26353C4.32971 2.13534 4.82533 1.98286 5.73791 1.94126C6.7249 1.89623 7.02094 1.88667 9.52016 1.88667" fill="#A0A0A0"/>
<path d="M9.5194 12.68C7.79623 12.68 6.39936 11.2832 6.39936 9.56006C6.39936 7.83689 7.79623 6.44003 9.5194 6.44003C11.2425 6.44003 12.6394 7.83689 12.6394 9.56006C12.6394 11.2832 11.2425 12.68 9.5194 12.68ZM9.5194 4.75356C6.86481 4.75356 4.71289 6.90547 4.71289 9.56006C4.71289 12.2146 6.86481 14.3665 9.5194 14.3665C12.1739 14.3665 14.3259 12.2146 14.3259 9.56006C14.3259 6.90547 12.1739 4.75356 9.5194 4.75356ZM15.639 4.56365C15.639 5.184 15.1361 5.68684 14.5158 5.68684C13.8955 5.68684 13.3926 5.184 13.3926 4.56365C13.3926 3.94333 13.8955 3.44043 14.5158 3.44043C15.1361 3.44043 15.639 3.94333 15.639 4.56365Z" fill="#A0A0A0"/>
</svg>
