<svg width="21" height="12" viewBox="0 0 21 12" fill="none" xmlns="http://www.w3.org/2000/svg">
<g id="&#240;&#159;&#166;&#134; icon &#34;link&#34;">
<path id="Vector" d="M12.3997 6.25247C12.3997 8.61949 10.1986 11 7.5141 11C7.19611 11 6.14794 11 5.88558 11C3.18735 11 1 8.87444 1 6.25247C1 3.99308 2.6242 2.10227 4.79989 1.62254C5.14906 1.5455 5.51243 1.50494 5.88558 1.50494" stroke="white" stroke-width="1.5" stroke-linecap="round" stroke-linejoin="round"/>
<path id="Vector_2" d="M8.60059 6.25246C8.60059 3.88544 10.8017 1.50493 13.4862 1.50493C13.8042 1.50493 14.8524 1.50493 15.1146 1.50493C17.8129 1.50493 20.0003 3.63047 20.0003 6.25246C20.0003 8.51185 18.3761 10.4026 16.2004 10.8824C15.8512 10.9594 15.4878 11 15.1146 11" stroke="white" stroke-width="1.5" stroke-linecap="round" stroke-linejoin="round"/>
</g>
</svg>
