<svg width="249" height="96" viewBox="0 0 249 96" fill="none" xmlns="http://www.w3.org/2000/svg">
<g id="Group 2294">
<g id="Group 2292">
<g id="&#236;&#157;&#140;&#235;&#163;&#140;">
<path id="Vector 1" d="M8.36282 91.4745L1 18.123H46.1232L38.9673 91.4745C38.9673 91.4745 37.6071 95.0133 23.6651 95.0133C9.72302 95.0133 8.36282 91.4745 8.36282 91.4745Z" fill="#FFEEEE" stroke="black" stroke-width="0.243098"/>
<path id="Vector 4" d="M10.1555 89.6446L3.66113 24.9194H43.4618L37.15 89.6446C37.15 89.6446 35.9502 92.7673 23.6527 92.7673C11.3552 92.7673 10.1555 89.6446 10.1555 89.6446Z" fill="#FC6637" stroke="black" stroke-width="0.243098"/>
<g id="&#236;&#158;&#142;">
<path id="Vector" d="M4.8556 14.9953C4.25714 15.3259 4.8142 16.7446 4.8142 16.7446C4.8142 16.7446 4.30452 17.2173 4.45527 17.6787C4.60603 18.14 5.00363 18.4187 5.00363 18.4187C5.00363 18.4187 4.50822 19.1659 4.72008 19.5834C4.92034 19.978 5.74609 20.0654 5.74609 20.0654C5.74609 20.0654 5.09736 20.919 5.32311 21.4288C5.54021 21.919 6.54792 22.0502 6.54792 22.0502C6.54792 22.0502 6.1936 22.7467 6.38779 23.1235C6.59053 23.5169 7.41381 23.6055 7.41381 23.6055C7.41381 23.6055 7.11381 24.3788 7.22165 24.8936C7.32949 25.4083 8.35507 25.3916 8.35507 25.3916C8.35507 25.3916 7.7526 26.4577 8.12276 26.9487C8.4869 27.4318 9.6555 27.1771 9.6555 27.1771C9.6555 27.1771 9.50329 28.2622 9.94803 28.6968C10.399 29.1375 11.6826 28.8123 11.6826 28.8123C11.6826 28.8123 12.7123 29.8077 13.27 29.442C13.7782 29.1087 13.4995 27.9033 13.4995 27.9033C13.4995 27.9033 14.6804 26.9064 14.4759 26.154C14.3088 25.5392 13.2609 25.1865 13.2609 25.1865C13.2609 25.1865 13.6074 24.0761 13.3103 23.6567C13.0189 23.2454 11.9612 23.3484 11.9612 23.3484L12.027 22.4276C11.751 22.0309 10.9562 21.9389 10.9562 21.9389C10.9562 21.9389 11.1997 21.107 10.9176 20.7262C10.6354 20.3454 9.76812 20.3355 9.76812 20.3355C9.76812 20.3355 10.0868 19.5347 9.83686 19.1388C9.56155 18.7028 8.58003 18.7321 8.58003 18.7321C8.58003 18.7321 8.99628 17.9511 8.75617 17.5514C8.51212 17.1452 7.60674 17.1607 7.60674 17.1607C7.60674 17.1607 7.65063 16.527 7.41263 16.254C7.13268 15.9329 6.35459 15.9867 6.35459 15.9867C6.35459 15.9867 5.46996 14.6559 4.8556 14.9953Z" fill="#237A2C" stroke="black" stroke-width="0.243098"/>
<g id="&#236;&#158;&#142;&#235;&#167;&#165;">
<path id="Vector 10" d="M4.88379 15.0049L13.137 29.4224" stroke="#005108" stroke-width="0.243098"/>
<path id="Vector 15" d="M5.35938 21.196L8.02379 20.6332L9.62677 18.9663" stroke="#005108" stroke-width="0.243098"/>
<path id="Vector 16" d="M4.68848 19.4211L7.0063 18.7933L8.56595 17.4512" stroke="#005108" stroke-width="0.243098"/>
<path id="Vector 17" d="M4.42871 17.5376L6.14 17.2779L7.35306 16.1089" stroke="#005108" stroke-width="0.243098"/>
<path id="Vector 18" d="M6.4209 23.101L9.06365 22.4732L10.6883 20.5898" stroke="#005108" stroke-width="0.243098"/>
<path id="Vector 19" d="M7.24414 24.8982L10.0169 24.0323L11.9664 22.4087" stroke="#005108" stroke-width="0.243098"/>
<path id="Vector 20" d="M8.06738 26.4133L11.0567 25.8505L13.1579 23.5991" stroke="#005108" stroke-width="0.243098"/>
<path id="Vector 21" d="M9.71484 28.4049L12.141 27.907L14.2638 25.8721" stroke="#005108" stroke-width="0.243098"/>
</g>
</g>
<g id="&#235;&#172;&#180;&#236;&#167;&#128;&#234;&#176;&#156; &#236;&#160;&#164;&#235;&#166;&#172;">
<path id="Rectangle 2" d="M41.0732 1H42.1992L30.7285 26.0588H29.6025L41.0732 1Z" fill="#D5B48D" stroke="black" stroke-width="0.243098"/>
<path id="Union" d="M35.6642 1.56201H32.6304C32.014 1.56201 31.8088 2.38708 32.3533 2.67587L36.4602 4.85378C36.9464 5.11165 36.8477 5.83565 36.3101 5.95385L31.8254 6.93997C31.2878 7.05817 31.1891 7.78217 31.6753 8.04003L36.4602 10.5775C36.9464 10.8354 36.8477 11.5594 36.3101 11.6776L31.8254 12.6637C31.2878 12.7819 31.1891 13.5059 31.6753 13.7638L36.4602 16.3012C36.9464 16.5591 36.8477 17.2831 36.3101 17.4013L31.8254 18.3874C31.2878 18.5056 31.1891 19.2296 31.6753 19.4875L37.7526 22.7103C37.838 22.7556 37.9331 22.7792 38.0297 22.7792H41.0635C41.6799 22.7792 41.8851 21.9542 41.3406 21.6654L37.2337 19.4875C36.7474 19.2296 36.8462 18.5056 37.3838 18.3874L41.8685 17.4013C42.4061 17.2831 42.5048 16.5591 42.0186 16.3012L37.2337 13.7638C36.7474 13.5059 36.8462 12.7819 37.3838 12.6637L41.8685 11.6776C42.4061 11.5594 42.5048 10.8354 42.0186 10.5775L37.2337 8.04003C36.7474 7.78217 36.8462 7.05817 37.3838 6.93997L41.8685 5.95385C42.4061 5.83565 42.5048 5.11165 42.0186 4.85378L35.9413 1.63093C35.8559 1.58567 35.7608 1.56201 35.6642 1.56201Z" fill="url(#paint0_linear_3853_14671)" stroke="black" stroke-width="0.243098"/>
</g>
<g id="&#236;&#158;&#142;_2">
<path id="Vector_2" d="M17.5401 19.5342C17.0107 19.3345 16.4146 20.4461 16.4146 20.4461C16.4146 20.4461 15.8432 20.3785 15.6331 20.7208C15.423 21.0632 15.4604 21.463 15.4604 21.463C15.4604 21.463 14.7235 21.5516 14.5738 21.9089C14.4323 22.2466 14.8199 22.8136 14.8199 22.8136C14.8199 22.8136 13.9337 22.8627 13.7333 23.2782C13.5405 23.6778 13.9981 24.3828 13.9981 24.3828C13.9981 24.3828 13.3688 24.5332 13.2353 24.8575C13.0959 25.1961 13.4814 25.7622 13.4814 25.7622C13.4814 25.7622 12.8329 25.9879 12.5661 26.3318C12.2993 26.6757 12.8597 27.3127 12.8597 27.3127C12.8597 27.3127 11.8643 27.5049 11.7531 28.0013C11.6437 28.4897 12.4309 29.0892 12.4309 29.0892C12.4309 29.0892 11.6649 29.5751 11.6293 30.0883C11.5932 30.6086 12.4865 31.2427 12.4865 31.2427C12.4865 31.2427 12.4109 32.4251 12.9405 32.5802C13.4232 32.7216 14.034 31.8998 14.034 31.8998C14.034 31.8998 15.2959 32.1091 15.6607 31.5769C15.9589 31.1419 15.6195 30.2928 15.6195 30.2928C15.6195 30.2928 16.5056 29.9157 16.6108 29.5036C16.7139 29.0996 16.0818 28.4886 16.0818 28.4886L16.6979 28.0363C16.8001 27.6497 16.4319 27.0998 16.4319 27.0998C16.4319 27.0998 17.0872 26.8071 17.176 26.4252C17.2649 26.0434 16.8061 25.4918 16.8061 25.4918C16.8061 25.4918 17.4821 25.2631 17.5977 24.8934C17.7251 24.4862 17.1803 23.8837 17.1803 23.8837C17.1803 23.8837 17.8961 23.7271 18.0194 23.3616C18.1448 22.9901 17.6495 22.4281 17.6495 22.4281C17.6495 22.4281 18.0727 22.116 18.1173 21.8197C18.1697 21.4712 17.7186 21.0099 17.7186 21.0099C17.7186 21.0099 18.0836 19.7392 17.5401 19.5342Z" fill="#237A2C" stroke="black" stroke-width="0.243098"/>
<g id="&#236;&#158;&#142;&#235;&#167;&#165;_2">
<path id="Vector 10_2" d="M17.5498 19.5571L12.8822 32.4859" stroke="#005108" stroke-width="0.243098"/>
<path id="Vector 15_2" d="M13.9004 23.177L15.684 24.5534L17.5947 24.6693" stroke="#005108" stroke-width="0.243098"/>
<path id="Vector 16_2" d="M14.6599 21.8024L16.2986 22.9257L17.9814 23.1884" stroke="#005108" stroke-width="0.243098"/>
<path id="Vector 17_2" d="M15.7083 20.6289L16.7897 21.5675L18.1774 21.7047" stroke="#005108" stroke-width="0.243098"/>
<path id="Vector 18_2" d="M13.2688 24.8669L15.0817 26.1949L17.1406 26.2084" stroke="#005108" stroke-width="0.243098"/>
<path id="Vector 19_2" d="M12.5764 26.349L14.6092 27.6311L16.6785 27.9886" stroke="#005108" stroke-width="0.243098"/>
<path id="Vector 20_2" d="M12.0611 27.6798L14.0189 29.2609L16.5654 29.3772" stroke="#005108" stroke-width="0.243098"/>
<path id="Vector 21_2" d="M11.6887 29.7843L13.3036 31.0455L15.7252 31.2915" stroke="#005108" stroke-width="0.243098"/>
</g>
</g>
<g id="&#235;&#148;&#184;&#234;&#184;&#176;">
<path id="Vector 22" d="M33.4403 31.9277C34.5493 31.2385 35.3822 30.5343 36.6292 30.9219C37.1366 31.0796 37.3122 31.4035 37.7992 31.6161C38.2646 31.8192 38.6108 31.7269 39.0441 31.9917C40.0866 32.6287 39.9274 33.7123 40.1701 34.909C40.3683 35.8863 40.5382 36.482 40.3305 37.4573C40.0074 38.9746 39.0761 39.5704 37.951 40.6392C36.1508 42.3494 34.5768 44.6806 32.3324 43.6175C30.1311 42.5748 30.9154 39.9726 30.9515 37.5384C30.9746 35.9774 30.7596 34.9026 31.6148 33.5961C32.1437 32.7882 32.6199 32.4375 33.4403 31.9277Z" fill="#FE521B" stroke="black" stroke-width="0.243098"/>
<g id="Vector_3">
<path d="M36.4033 31.4658C35.8209 31.6903 35.1802 32.1328 34.5435 31.901C35.0508 32.1437 35.6045 32.4677 36.1457 32.5434C36.2337 32.5557 36.0681 32.7736 36.0102 32.8412C35.8181 33.0651 35.4571 33.2282 35.1809 33.2942C34.7755 33.391 34.1968 33.5723 33.7804 33.5042C33.6979 33.4907 33.2786 33.3562 33.2786 33.3562C33.2786 33.3562 33.4348 33.7375 33.4696 33.7784C33.7172 34.0693 34.2014 34.293 34.5671 34.3962C34.6387 34.4165 34.7828 34.3334 34.8342 34.4032C34.8924 34.4821 34.567 34.7059 34.521 34.7438C34.2634 34.9563 33.9716 35.0464 33.6792 35.1946C33.5237 35.2734 33.3434 35.3994 33.1683 35.4173C32.8921 35.4455 32.3669 35.1905 32.3669 35.1905C32.3669 35.1905 33.0323 35.7286 33.3758 35.9852C33.6269 36.1728 33.8925 36.0025 34.1616 35.9957C34.5345 35.9864 34.086 36.3777 33.9739 36.4797C33.4202 36.9841 32.0854 36.8382 32.0854 36.8382C32.0854 36.8382 32.5423 37.4524 32.6504 37.5138C32.7921 37.5943 32.8168 37.5875 32.9657 37.6535C33.1212 37.7224 33.191 37.7131 33.3448 37.6999C33.5812 37.6797 33.7106 37.6814 33.5144 37.8966C33.2303 38.2081 33.0706 38.5256 32.4371 38.5066L31.4022 38.3783C31.4022 38.3783 31.983 39.1492 32.3298 39.3028C32.4155 39.3408 32.7915 39.3469 32.8159 39.4102C32.9359 39.7209 32.0918 39.7168 31.9683 39.7162L31.9674 39.7162C31.8235 39.7155 31.4553 39.7054 31.4553 39.7054C31.4553 39.7054 31.9266 40.1573 32.2235 40.2888C32.3418 40.3412 32.6637 40.3321 32.6188 40.4335C32.4841 40.737 32.3133 40.6384 32.0665 40.7189C31.8774 40.7806 31.3658 40.5165 31.3658 40.5165C31.3658 40.5165 31.5335 40.8757 31.5977 40.9534C31.7516 41.1398 31.9301 41.3134 32.154 41.4126C32.2186 41.4412 32.2949 41.4911 32.3655 41.4995C32.4688 41.5118 32.7305 41.3862 32.6768 41.4754C32.5272 41.7239 31.5477 41.8124 31.5477 41.8124C31.5477 41.8124 32.4462 42.2104 32.7104 41.8413C32.8939 41.7099 32.7325 41.9592 32.6937 42.0466L32.5732 43.1969L33.2784 42.5791C33.4852 42.3617 33.6986 42.934 33.6986 42.934C33.6986 42.934 33.7618 42.5571 33.7609 42.5498C33.7146 42.1755 33.7958 41.8924 33.9468 41.5519C34.03 41.3643 34.3057 41.0768 34.3057 41.0768L34.8923 42.3335C34.8923 42.3335 34.9693 41.664 34.8367 41.1362C34.642 40.3608 35.035 39.0987 35.035 39.0987C35.035 39.0987 35.4256 40.503 35.6791 40.7912C35.9326 41.0794 36.502 41.3169 36.502 41.3169C36.502 41.3169 36.0674 40.7386 36.0114 39.4139C35.6659 38.0396 36.3176 37.7153 36.4031 37.638C37.5917 39.0587 38.3977 39.0933 38.3977 39.0933C38.3977 39.0933 37.6798 38.0093 37.651 37.9534C37.4646 37.5922 37.2758 37.0818 37.1756 36.6794C37.1129 36.4273 38.7584 37.0104 38.7584 37.0104C38.7584 37.0104 38.0012 36.0445 37.9112 35.638C37.8213 35.2316 37.6869 35.2016 37.7045 34.9388C37.7099 34.8224 37.6916 34.6022 37.8279 34.7673C38.2463 35.274 39.2447 36.3571 39.2447 36.3571C39.2447 36.3571 39.3649 36.063 39.0597 35.5391C38.7546 35.0153 38.4195 34.5745 38.425 34.1371C38.4289 33.8161 38.8592 34.6249 39.1367 34.7867C39.3033 34.8837 39.4381 34.9903 39.6237 35.0598C39.6237 35.0598 39.0573 33.9358 38.9545 33.3742C38.9098 33.2585 39.0446 32.7816 38.9468 32.6973C38.8345 32.6006 38.6673 32.5531 38.5324 32.4934C38.403 32.4361 38.2543 32.3636 38.1125 32.3481C37.9519 32.3305 37.7776 32.3806 37.6218 32.3458C37.3925 32.2946 37.2036 32.0365 37.0711 31.8591L37.0692 31.8565C36.9735 31.7284 36.9397 31.6831 36.7853 31.6147C36.7033 31.5784 36.4897 31.4326 36.4033 31.4658Z" fill="#FFC1AD"/>
<path d="M34.4741 31.8731C35.1336 32.1652 35.7998 31.6985 36.4033 31.4658C36.4897 31.4326 36.7033 31.5784 36.7853 31.6147C36.9397 31.6831 36.9735 31.7284 37.0692 31.8565L37.0711 31.8591C37.2036 32.0365 37.3925 32.2946 37.6218 32.3458C37.7776 32.3806 37.9519 32.3305 38.1125 32.3481C38.2543 32.3636 38.403 32.4361 38.5324 32.4934C38.6673 32.5531 38.8345 32.6006 38.9468 32.6973C39.0446 32.7816 38.9098 33.2585 38.9545 33.3742C39.0573 33.9358 39.6237 35.0598 39.6237 35.0598C39.4381 34.9903 39.3033 34.8837 39.1367 34.7867C38.8592 34.6249 38.4289 33.8161 38.425 34.1371C38.4195 34.5745 38.7546 35.0153 39.0597 35.5391C39.3649 36.063 39.2447 36.3571 39.2447 36.3571C39.2447 36.3571 38.2463 35.274 37.8279 34.7673C37.6916 34.6022 37.7099 34.8224 37.7045 34.9388C37.6869 35.2016 37.8213 35.2316 37.9112 35.638C38.0012 36.0445 38.7584 37.0104 38.7584 37.0104C38.7584 37.0104 37.1129 36.4273 37.1756 36.6794C37.2758 37.0818 37.4646 37.5922 37.651 37.9534C37.6798 38.0093 38.3977 39.0933 38.3977 39.0933C38.3977 39.0933 37.5917 39.0587 36.4031 37.638C36.3176 37.7153 35.6659 38.0396 36.0114 39.4139C36.0674 40.7386 36.502 41.3169 36.502 41.3169C36.502 41.3169 35.9326 41.0794 35.6791 40.7912C35.4256 40.503 35.035 39.0987 35.035 39.0987C35.035 39.0987 34.642 40.3608 34.8367 41.1362C34.9693 41.664 34.8923 42.3335 34.8923 42.3335L34.3057 41.0768C34.3057 41.0768 34.03 41.3643 33.9468 41.5519C33.7958 41.8924 33.7146 42.1755 33.7609 42.5498C33.7618 42.5571 33.6986 42.934 33.6986 42.934C33.6986 42.934 33.4852 42.3617 33.2784 42.5791L32.5732 43.1969L32.6937 42.0466C32.7325 41.9592 32.8939 41.7099 32.7104 41.8413C32.4462 42.2104 31.5477 41.8124 31.5477 41.8124C31.5477 41.8124 32.5272 41.7239 32.6768 41.4754C32.7305 41.3862 32.4688 41.5118 32.3655 41.4995C32.2949 41.4911 32.2186 41.4412 32.154 41.4126C31.9301 41.3134 31.7516 41.1398 31.5977 40.9534C31.5335 40.8757 31.3658 40.5165 31.3658 40.5165C31.3658 40.5165 31.8774 40.7806 32.0665 40.7189C32.3133 40.6384 32.4841 40.737 32.6188 40.4335C32.6637 40.3321 32.3418 40.3412 32.2235 40.2888C31.9266 40.1573 31.4553 39.7054 31.4553 39.7054C31.4553 39.7054 31.8235 39.7155 31.9674 39.7162L31.9683 39.7162C32.0918 39.7168 32.9359 39.7209 32.8159 39.4102C32.7915 39.3469 32.4155 39.3408 32.3298 39.3028C31.983 39.1492 31.4022 38.3783 31.4022 38.3783L32.4371 38.5066C33.0706 38.5256 33.2303 38.2081 33.5144 37.8966C33.7106 37.6814 33.5812 37.6797 33.3448 37.6999C33.191 37.7131 33.1212 37.7224 32.9657 37.6535C32.8168 37.5875 32.7921 37.5943 32.6504 37.5138C32.5423 37.4524 32.0854 36.8382 32.0854 36.8382C32.0854 36.8382 33.4202 36.9841 33.9739 36.4797C34.086 36.3777 34.5345 35.9864 34.1616 35.9957C33.8925 36.0025 33.6269 36.1728 33.3758 35.9852C33.0323 35.7286 32.3669 35.1905 32.3669 35.1905C32.3669 35.1905 32.8921 35.4455 33.1683 35.4173C33.3434 35.3994 33.5237 35.2734 33.6792 35.1946C33.9716 35.0464 34.2634 34.9563 34.521 34.7438C34.567 34.7059 34.8924 34.4821 34.8342 34.4032C34.7828 34.3334 34.6387 34.4165 34.5671 34.3962C34.2014 34.293 33.7172 34.0693 33.4696 33.7784C33.4348 33.7375 33.2786 33.3562 33.2786 33.3562C33.2786 33.3562 33.6979 33.4907 33.7804 33.5042C34.1968 33.5723 34.7755 33.391 35.1809 33.2942C35.4571 33.2282 35.8181 33.0651 36.0102 32.8412C36.0681 32.7736 36.2337 32.5557 36.1457 32.5434C35.5426 32.4591 34.9241 32.0664 34.3714 31.8215" stroke="#BF3F17" stroke-width="0.243098" stroke-linecap="round"/>
</g>
</g>
<g id="&#235;&#148;&#184;&#234;&#184;&#176;_2">
<path id="Vector 22_2" d="M12.5509 31.0093C11.7614 30.5186 11.1684 30.0173 10.2807 30.2932C9.91945 30.4055 9.79443 30.6361 9.44776 30.7874C9.11643 30.932 8.86994 30.8663 8.56149 31.0548C7.81934 31.5083 7.93264 32.2797 7.75987 33.1317C7.61879 33.8274 7.49783 34.2515 7.64569 34.9458C7.87574 36.026 8.53871 36.4502 9.33967 37.2111C10.6212 38.4285 11.7418 40.0882 13.3396 39.3313C14.9067 38.589 14.3484 36.7365 14.3227 35.0036C14.3062 33.8923 14.4593 33.1271 13.8505 32.197C13.474 31.6219 13.1349 31.3722 12.5509 31.0093Z" fill="#FE521B" stroke="black" stroke-width="0.243098"/>
<g id="Vector_4">
<path d="M10.4411 30.6804C10.8557 30.8402 11.3118 31.1552 11.7651 30.9902C11.4039 31.1629 11.0098 31.3936 10.6245 31.4475C10.5618 31.4562 10.6797 31.6114 10.721 31.6595C10.8577 31.8189 11.1147 31.935 11.3113 31.982C11.5999 32.0509 12.0119 32.18 12.3083 32.1315C12.3671 32.1219 12.6656 32.0261 12.6656 32.0261C12.6656 32.0261 12.5544 32.2976 12.5296 32.3267C12.3534 32.5338 12.0087 32.693 11.7483 32.7666C11.6973 32.781 11.5947 32.7218 11.5581 32.7715C11.5168 32.8277 11.7484 32.987 11.7811 33.014C11.9645 33.1652 12.1722 33.2294 12.3804 33.3349C12.4911 33.391 12.6195 33.4807 12.7441 33.4934C12.9407 33.5135 13.3146 33.332 13.3146 33.332C13.3146 33.332 12.8409 33.715 12.5964 33.8977C12.4176 34.0313 12.2285 33.91 12.037 33.9052C11.7715 33.8986 12.0908 34.1772 12.1706 34.2498C12.5648 34.6088 13.5151 34.505 13.5151 34.505C13.5151 34.505 13.1898 34.9423 13.1128 34.986C13.012 35.0433 12.9944 35.0385 12.8883 35.0855C12.7777 35.1345 12.728 35.1279 12.6184 35.1185C12.4501 35.1041 12.3581 35.1053 12.4978 35.2585C12.7 35.4802 12.8137 35.7063 13.2646 35.6928L14.0014 35.6014C14.0014 35.6014 13.588 36.1502 13.3411 36.2596C13.2801 36.2866 13.0123 36.291 12.995 36.336C12.9096 36.5572 13.5105 36.5543 13.5984 36.5539L13.5984 36.5539L13.599 36.5539C13.7015 36.5534 13.9636 36.5462 13.9636 36.5462C13.9636 36.5462 13.6281 36.8679 13.4167 36.9615C13.3325 36.9988 13.1033 36.9923 13.1354 37.0645C13.2312 37.2806 13.3528 37.2104 13.5285 37.2677C13.6631 37.3116 14.0273 37.1236 14.0273 37.1236C14.0273 37.1236 13.9079 37.3793 13.8623 37.4346C13.7527 37.5673 13.6256 37.6909 13.4662 37.7615C13.4202 37.7819 13.3659 37.8174 13.3157 37.8234C13.2421 37.8322 13.0558 37.7428 13.094 37.8062C13.2005 37.9831 13.8979 38.0462 13.8979 38.0462C13.8979 38.0462 13.2582 38.3295 13.0701 38.0668C12.9395 37.9732 13.0544 38.1507 13.082 38.2129L13.1678 39.0318L12.6658 38.592C12.5185 38.4372 12.3666 38.8447 12.3666 38.8447C12.3666 38.8447 12.3216 38.5763 12.3222 38.5711C12.3552 38.3047 12.2974 38.1031 12.1899 37.8607C12.1306 37.7272 11.9344 37.5225 11.9344 37.5225L11.5168 38.4171C11.5168 38.4171 11.462 37.9405 11.5564 37.5648C11.695 37.0128 11.4152 36.1143 11.4152 36.1143C11.4152 36.1143 11.1371 37.114 10.9566 37.3191C10.7762 37.5243 10.3709 37.6934 10.3709 37.6934C10.3709 37.6934 10.6802 37.2818 10.7201 36.3387C10.9661 35.3603 10.5021 35.1294 10.4412 35.0744C9.59509 36.0858 9.02128 36.1104 9.02128 36.1104C9.02128 36.1104 9.53233 35.3387 9.55287 35.2989C9.68555 35.0418 9.81997 34.6784 9.89127 34.392C9.93593 34.2125 8.76449 34.6276 8.76449 34.6276C8.76449 34.6276 9.30358 33.9399 9.36761 33.6506C9.43165 33.3612 9.52733 33.3399 9.51476 33.1528C9.51091 33.0699 9.52394 32.9132 9.42692 33.0307C9.12905 33.3914 8.41826 34.1625 8.41826 34.1625C8.41826 34.1625 8.33275 33.9531 8.54999 33.5802C8.76723 33.2072 9.00573 32.8935 9.00188 32.5821C8.99905 32.3535 8.69274 32.9294 8.49515 33.0445C8.37656 33.1136 8.28061 33.1895 8.1485 33.2389C8.1485 33.2389 8.5517 32.4388 8.62491 32.039C8.6567 31.9566 8.56074 31.6171 8.6304 31.5571C8.71031 31.4882 8.82934 31.4544 8.92536 31.4119C9.01747 31.3711 9.12335 31.3195 9.22432 31.3084C9.33866 31.2959 9.46275 31.3316 9.57364 31.3069C9.73691 31.2704 9.87136 31.0867 9.96569 30.9603L9.96706 30.9585C10.0352 30.8673 10.0592 30.8351 10.1692 30.7864C10.2275 30.7605 10.3796 30.6567 10.4411 30.6804Z" fill="#FFC1AD"/>
<path d="M11.8145 30.9703C11.345 31.1783 10.8707 30.846 10.4411 30.6804C10.3796 30.6567 10.2275 30.7605 10.1692 30.7864C10.0592 30.8351 10.0352 30.8673 9.96706 30.9585L9.96569 30.9603C9.87136 31.0867 9.73691 31.2704 9.57364 31.3069C9.46275 31.3316 9.33866 31.2959 9.22432 31.3084C9.12335 31.3195 9.01747 31.3711 8.92536 31.4119C8.82934 31.4544 8.71031 31.4882 8.6304 31.5571C8.56074 31.6171 8.6567 31.9566 8.62491 32.039C8.5517 32.4388 8.1485 33.2389 8.1485 33.2389C8.28061 33.1895 8.37656 33.1136 8.49514 33.0445C8.69274 32.9294 8.99905 32.3535 9.00188 32.5821C9.00573 32.8935 8.76723 33.2072 8.54999 33.5802C8.33275 33.9531 8.41826 34.1625 8.41826 34.1625C8.41826 34.1625 9.12905 33.3914 9.42692 33.0307C9.52394 32.9132 9.51091 33.0699 9.51476 33.1528C9.52733 33.3399 9.43165 33.3612 9.36761 33.6506C9.30358 33.9399 8.76449 34.6276 8.76449 34.6276C8.76449 34.6276 9.93593 34.2125 9.89127 34.392C9.81997 34.6784 9.68555 35.0418 9.55287 35.2989C9.53233 35.3387 9.02128 36.1104 9.02128 36.1104C9.02128 36.1104 9.59509 36.0858 10.4412 35.0744C10.5021 35.1294 10.9661 35.3603 10.7201 36.3387C10.6802 37.2818 10.3709 37.6934 10.3709 37.6934C10.3709 37.6934 10.7762 37.5243 10.9566 37.3191C11.1371 37.114 11.4152 36.1143 11.4152 36.1143C11.4152 36.1143 11.695 37.0128 11.5564 37.5648C11.462 37.9405 11.5168 38.4171 11.5168 38.4171L11.9344 37.5225C11.9344 37.5225 12.1306 37.7272 12.1899 37.8607C12.2974 38.1031 12.3552 38.3047 12.3222 38.5711C12.3216 38.5763 12.3666 38.8447 12.3666 38.8447C12.3666 38.8447 12.5185 38.4372 12.6658 38.592L13.1678 39.0318L13.082 38.2129C13.0544 38.1507 12.9395 37.9732 13.0701 38.0668C13.2582 38.3295 13.8979 38.0462 13.8979 38.0462C13.8979 38.0462 13.2005 37.9831 13.094 37.8062C13.0558 37.7428 13.2421 37.8322 13.3157 37.8234C13.3659 37.8174 13.4202 37.7819 13.4662 37.7615C13.6256 37.6909 13.7527 37.5673 13.8623 37.4346C13.9079 37.3793 14.0273 37.1236 14.0273 37.1236C14.0273 37.1236 13.6631 37.3116 13.5285 37.2677C13.3528 37.2104 13.2312 37.2806 13.1354 37.0645C13.1033 36.9923 13.3325 36.9988 13.4167 36.9615C13.6281 36.8679 13.9636 36.5462 13.9636 36.5462C13.9636 36.5462 13.7015 36.5534 13.599 36.5539L13.5984 36.5539C13.5105 36.5543 12.9096 36.5572 12.995 36.336C13.0123 36.291 13.2801 36.2866 13.3411 36.2596C13.588 36.1502 14.0014 35.6014 14.0014 35.6014L13.2646 35.6928C12.8137 35.7063 12.7 35.4802 12.4978 35.2585C12.3581 35.1053 12.4501 35.1041 12.6184 35.1185C12.728 35.1279 12.7777 35.1345 12.8883 35.0855C12.9944 35.0385 13.012 35.0433 13.1128 34.986C13.1898 34.9423 13.5151 34.505 13.5151 34.505C13.5151 34.505 12.5648 34.6088 12.1706 34.2498C12.0908 34.1772 11.7715 33.8986 12.037 33.9052C12.2285 33.91 12.4176 34.0313 12.5964 33.8977C12.8409 33.715 13.3146 33.332 13.3146 33.332C13.3146 33.332 12.9407 33.5135 12.7441 33.4934C12.6195 33.4807 12.4911 33.391 12.3804 33.3349C12.1722 33.2294 11.9645 33.1652 11.7811 33.014C11.7484 32.987 11.5168 32.8277 11.5581 32.7715C11.5947 32.7218 11.6973 32.781 11.7483 32.7666C12.0087 32.693 12.3534 32.5338 12.5296 32.3267C12.5544 32.2976 12.6656 32.0261 12.6656 32.0261C12.6656 32.0261 12.3671 32.1219 12.3083 32.1315C12.0119 32.18 11.5999 32.0509 11.3113 31.982C11.1147 31.935 10.8577 31.8189 10.721 31.6595C10.6797 31.6114 10.5618 31.4562 10.6245 31.4475C11.0538 31.3875 11.4941 31.1079 11.8876 30.9336" stroke="#BF3F17" stroke-width="0.243098" stroke-linecap="round"/>
</g>
</g>
<g id="&#235;&#148;&#184;&#234;&#184;&#176;_3">
<path id="Vector 22_3" d="M23.0002 32.8268C22.7804 32.1006 22.6869 31.4737 21.9934 31.1648C21.7112 31.0392 21.5101 31.1134 21.2158 31.0195C20.9345 30.9298 20.8187 30.7567 20.5278 30.7063C19.8279 30.5848 19.4814 31.1192 18.9159 31.5489C18.4542 31.8998 18.1513 32.0949 17.8676 32.6005C17.4263 33.3872 17.6043 34.0046 17.6855 34.9028C17.8153 36.34 17.6079 37.9619 18.9965 38.358C20.3583 38.7465 21.0147 37.3091 21.9334 36.2319C22.5226 35.5412 23.0292 35.1541 23.1571 34.2556C23.2363 33.6999 23.1629 33.3641 23.0002 32.8268Z" fill="#FE521B" stroke="black" stroke-width="0.243098"/>
<g id="Vector_5">
<path d="M21.8833 31.4881C22.0515 31.8095 22.1615 32.2484 22.5286 32.3913C22.2139 32.3027 21.8476 32.232 21.5822 32.0576C21.539 32.0292 21.5276 32.1879 21.527 32.2396C21.525 32.411 21.62 32.6207 21.7153 32.7554C21.8553 32.9532 22.0385 33.2542 22.2465 33.3841C22.2877 33.4099 22.5225 33.5119 22.5225 33.5119C22.5225 33.5119 22.3079 33.6185 22.277 33.6231C22.0572 33.6552 21.7598 33.5673 21.5604 33.4722C21.5214 33.4536 21.4903 33.362 21.441 33.3728C21.3853 33.385 21.4416 33.6075 21.4471 33.6417C21.4781 33.8333 21.5709 33.9845 21.6418 34.1613C21.6794 34.2554 21.7099 34.3796 21.7794 34.4545C21.8893 34.5727 22.2166 34.6627 22.2166 34.6627C22.2166 34.6627 21.7193 34.6426 21.4708 34.623C21.2891 34.6087 21.2384 34.4324 21.1235 34.3263C20.9642 34.1793 21.0099 34.5222 21.0196 34.6097C21.0679 35.0423 21.707 35.4904 21.707 35.4904C21.707 35.4904 21.2716 35.5835 21.2008 35.5689C21.108 35.5497 21.0998 35.5373 21.0094 35.509C20.9151 35.4795 20.8882 35.4487 20.826 35.3839C20.7305 35.2844 20.6734 35.2356 20.6765 35.4048C20.681 35.6498 20.6289 35.8497 20.9128 36.0843L21.4142 36.4251C21.4142 36.4251 20.8646 36.5391 20.6541 36.4733C20.6021 36.457 20.4354 36.3155 20.4005 36.3338C20.2288 36.4235 20.5991 36.7454 20.6533 36.7924L20.6537 36.7928C20.7168 36.8477 20.8815 36.9844 20.8815 36.9844C20.8815 36.9844 20.5021 37.0011 20.322 36.9447C20.2502 36.9222 20.1131 36.7948 20.0938 36.8564C20.0361 37.0406 20.1486 37.063 20.2255 37.1928C20.2844 37.2922 20.6092 37.373 20.6092 37.373C20.6092 37.373 20.3981 37.4656 20.3402 37.475C20.2014 37.4974 20.0568 37.5048 19.9209 37.4622C19.8817 37.45 19.8292 37.4425 19.7952 37.4191C19.7453 37.3849 19.6792 37.2297 19.6684 37.2892C19.6384 37.4551 20.0323 37.8694 20.0323 37.8694C20.0323 37.8694 19.487 37.6988 19.5133 37.4362C19.4836 37.3085 19.4584 37.4792 19.4418 37.5323L19.0528 38.081L18.982 37.5407C18.975 37.3665 18.6621 37.5347 18.6621 37.5347C18.6621 37.5347 18.7792 37.3458 18.7824 37.3429C18.9463 37.1972 19.0196 37.0424 19.0843 36.8357C19.12 36.7219 19.1099 36.4906 19.1099 36.4906L18.3712 36.8146C18.3712 36.8146 18.5946 36.4927 18.8552 36.313C19.2379 36.0489 19.5507 35.3469 19.5507 35.3469C19.5507 35.3469 18.841 35.8106 18.6196 35.8393C18.3983 35.868 18.0584 35.7535 18.0584 35.7535C18.0584 35.7535 18.4702 35.6675 19.0032 35.1103C19.6817 34.6424 19.5216 34.2509 19.5139 34.1843C18.4493 34.3492 18.0839 34.0553 18.0839 34.0553C18.0839 34.0553 18.8136 33.857 18.8477 33.8437C19.0678 33.7574 19.3462 33.6068 19.5444 33.4694C19.6686 33.3833 18.726 33.0072 18.726 33.0072C18.726 33.0072 19.4276 32.8755 19.6229 32.7325C19.8182 32.5894 19.8885 32.6278 19.9816 32.5063C20.0239 32.4534 20.1165 32.3642 19.9936 32.384C19.6163 32.445 18.7643 32.5353 18.7643 32.5353C18.7643 32.5353 18.8248 32.3608 19.1592 32.2489C19.4936 32.1371 19.8091 32.073 19.9747 31.8799C20.0962 31.7381 19.5977 31.9265 19.4144 31.8907C19.3044 31.8693 19.2046 31.8641 19.0968 31.8233C19.0968 31.8233 19.7757 31.5495 20.0363 31.3436C20.1002 31.3102 20.2244 31.0502 20.2995 31.0509C20.3856 31.0517 20.4769 31.095 20.5588 31.1207C20.6373 31.1452 20.7301 31.1706 20.798 31.2182C20.8749 31.2721 20.9318 31.3608 21.0132 31.4053C21.133 31.4709 21.3146 31.4306 21.4406 31.4039L21.4424 31.4035C21.5334 31.3842 21.5656 31.3774 21.6593 31.4067C21.709 31.4223 21.8583 31.4405 21.8833 31.4881Z" fill="#FFC1AD"/>
<path d="M22.5696 32.4056C22.1694 32.2804 22.0576 31.8211 21.8833 31.4881C21.8583 31.4405 21.709 31.4223 21.6593 31.4067C21.5656 31.3774 21.5334 31.3842 21.4424 31.4035L21.4406 31.4039C21.3146 31.4306 21.133 31.4709 21.0132 31.4053C20.9318 31.3608 20.8749 31.2721 20.798 31.2182C20.7301 31.1706 20.6373 31.1452 20.5588 31.1207C20.4769 31.095 20.3856 31.0517 20.2995 31.0509C20.2244 31.0502 20.1002 31.3102 20.0363 31.3436C19.7757 31.5495 19.0968 31.8233 19.0968 31.8233C19.2046 31.8641 19.3044 31.8693 19.4144 31.8907C19.5977 31.9265 20.0962 31.7381 19.9747 31.8799C19.8091 32.073 19.4936 32.1371 19.1592 32.2489C18.8248 32.3608 18.7643 32.5353 18.7643 32.5353C18.7643 32.5353 19.6163 32.445 19.9936 32.384C20.1165 32.3642 20.0239 32.4534 19.9816 32.5063C19.8885 32.6278 19.8182 32.5894 19.6229 32.7325C19.4276 32.8755 18.726 33.0072 18.726 33.0072C18.726 33.0072 19.6686 33.3833 19.5444 33.4694C19.3462 33.6068 19.0678 33.7574 18.8477 33.8437C18.8136 33.857 18.0839 34.0553 18.0839 34.0553C18.0839 34.0553 18.4493 34.3492 19.5139 34.1843C19.5216 34.2509 19.6817 34.6424 19.0032 35.1103C18.4702 35.6675 18.0584 35.7535 18.0584 35.7535C18.0584 35.7535 18.3983 35.868 18.6196 35.8393C18.841 35.8106 19.5507 35.3469 19.5507 35.3469C19.5507 35.3469 19.2379 36.0489 18.8552 36.313C18.5946 36.4927 18.3712 36.8146 18.3712 36.8146L19.1099 36.4906C19.1099 36.4906 19.12 36.7219 19.0843 36.8357C19.0196 37.0424 18.9463 37.1972 18.7824 37.3429C18.7792 37.3458 18.6621 37.5347 18.6621 37.5347C18.6621 37.5347 18.975 37.3665 18.982 37.5407L19.0528 38.081L19.4418 37.5323C19.4584 37.4792 19.4836 37.3085 19.5133 37.4362C19.487 37.6988 20.0323 37.8694 20.0323 37.8694C20.0323 37.8694 19.6384 37.4551 19.6684 37.2892C19.6792 37.2297 19.7453 37.3849 19.7952 37.4191C19.8292 37.4425 19.8817 37.45 19.9209 37.4622C20.0568 37.5048 20.2014 37.4974 20.3402 37.475C20.3981 37.4656 20.6092 37.373 20.6092 37.373C20.6092 37.373 20.2844 37.2922 20.2255 37.1928C20.1486 37.063 20.0361 37.0406 20.0938 36.8564C20.1131 36.7948 20.2502 36.9222 20.322 36.9447C20.5021 37.0011 20.8815 36.9844 20.8815 36.9844C20.8815 36.9844 20.7168 36.8477 20.6537 36.7928L20.6533 36.7924C20.5991 36.7454 20.2288 36.4235 20.4005 36.3338C20.4354 36.3155 20.6021 36.457 20.6541 36.4733C20.8646 36.5391 21.4142 36.4251 21.4142 36.4251L20.9128 36.0843C20.6289 35.8497 20.681 35.6498 20.6765 35.4048C20.6734 35.2356 20.7305 35.2844 20.826 35.3839C20.8882 35.4487 20.9151 35.4795 21.0094 35.509C21.0998 35.5373 21.108 35.5497 21.2008 35.5689C21.2716 35.5835 21.707 35.4904 21.707 35.4904C21.707 35.4904 21.0679 35.0423 21.0196 34.6097C21.0099 34.5222 20.9642 34.1793 21.1235 34.3263C21.2384 34.4324 21.2891 34.6087 21.4708 34.623C21.7193 34.6426 22.2166 34.6627 22.2166 34.6627C22.2166 34.6627 21.8893 34.5727 21.7794 34.4545C21.7099 34.3796 21.6794 34.2554 21.6418 34.1613C21.5709 33.9845 21.4781 33.8333 21.4471 33.6417C21.4416 33.6075 21.3853 33.385 21.441 33.3728C21.4903 33.362 21.5214 33.4536 21.5604 33.4722C21.7598 33.5673 22.0572 33.6552 22.277 33.6231C22.3079 33.6185 22.5225 33.5119 22.5225 33.5119C22.5225 33.5119 22.2877 33.4099 22.2465 33.3841C22.0385 33.2542 21.8553 32.9532 21.7153 32.7554C21.62 32.6207 21.525 32.411 21.527 32.2396C21.5276 32.1879 21.539 32.0292 21.5822 32.0576C21.8779 32.252 22.2989 32.3175 22.6343 32.4225" stroke="#BF3F17" stroke-width="0.243098" stroke-linecap="round"/>
</g>
</g>
<g id="&#235;&#148;&#184;&#234;&#184;&#176;_4">
<path id="Vector 22_4" d="M29.8047 47.2808C29.5365 46.3948 29.4224 45.6299 28.5763 45.2532C28.2321 45.0998 27.9867 45.1904 27.6277 45.0758C27.2845 44.9664 27.1432 44.7553 26.7883 44.6937C25.9344 44.5455 25.5117 45.1975 24.8218 45.7217C24.2585 46.1499 23.8889 46.3878 23.5429 47.0047C23.0044 47.9645 23.2216 48.7177 23.3206 49.8135C23.4791 51.567 23.226 53.5456 24.92 54.0289C26.5815 54.5029 27.3824 52.7492 28.5032 51.4351C29.222 50.5924 29.84 50.1202 29.9961 49.0239C30.0927 48.3459 30.0032 47.9363 29.8047 47.2808Z" fill="#FE521B" stroke="black" stroke-width="0.243098"/>
<g id="Vector_6">
<path d="M28.4411 45.6484C28.6463 46.0404 28.7805 46.5759 29.2284 46.7502C28.8444 46.6422 28.3975 46.556 28.0737 46.3431C28.021 46.3085 28.0072 46.5021 28.0064 46.5652C28.0039 46.7744 28.1199 47.0302 28.2362 47.1945C28.4069 47.4358 28.6304 47.803 28.8842 47.9616C28.9345 47.993 29.221 48.1174 29.221 48.1174C29.221 48.1174 28.9591 48.2475 28.9214 48.2531C28.6532 48.2923 28.2904 48.185 28.0472 48.069C27.9995 48.0462 27.9616 47.9345 27.9015 47.9477C27.8336 47.9626 27.9022 48.234 27.9089 48.2758C27.9467 48.5095 28.06 48.694 28.1464 48.9098C28.1924 49.0245 28.2295 49.176 28.3144 49.2674C28.4484 49.4116 28.8477 49.5214 28.8477 49.5214C28.8477 49.5214 28.2411 49.4969 27.9378 49.473C27.7161 49.4555 27.6543 49.2405 27.5141 49.111C27.3198 48.9316 27.3755 49.35 27.3874 49.4568C27.4463 49.9846 28.226 50.5312 28.226 50.5312C28.226 50.5312 27.6948 50.6448 27.6084 50.627C27.4952 50.6036 27.4853 50.5884 27.375 50.5539C27.2599 50.5179 27.227 50.4803 27.1512 50.4013C27.0347 50.28 26.965 50.2204 26.9688 50.4268C26.9742 50.7257 26.9107 50.9696 27.2571 51.2558L27.8688 51.6716C27.8688 51.6716 27.1982 51.8107 26.9414 51.7304C26.878 51.7105 26.6747 51.5379 26.6321 51.5602C26.4226 51.6697 26.8743 52.0623 26.9404 52.1197L26.9404 52.1197L26.9409 52.1202C27.018 52.1871 27.2189 52.3539 27.2189 52.3539C27.2189 52.3539 26.7561 52.3743 26.5363 52.3055C26.4487 52.2781 26.2814 52.1227 26.2579 52.1978C26.1875 52.4225 26.3247 52.4498 26.4185 52.6082C26.4904 52.7295 26.8867 52.8281 26.8867 52.8281C26.8867 52.8281 26.6291 52.9411 26.5585 52.9525C26.3892 52.9798 26.2128 52.9888 26.0469 52.9369C25.9991 52.922 25.9351 52.9129 25.8936 52.8843C25.8327 52.8426 25.7521 52.6532 25.7389 52.7258C25.7023 52.9282 26.1828 53.4336 26.1828 53.4336C26.1828 53.4336 25.5176 53.2255 25.5496 52.9052C25.5134 52.7493 25.4827 52.9577 25.4624 53.0224L24.9878 53.6918L24.9014 53.0327C24.893 52.8201 24.5112 53.0253 24.5112 53.0253C24.5112 53.0253 24.6541 52.7948 24.658 52.7913C24.858 52.6136 24.9473 52.4247 25.0263 52.1725C25.0698 52.0337 25.0575 51.7515 25.0575 51.7515L24.1563 52.1468C24.1563 52.1468 24.4289 51.754 24.7467 51.5348C25.2137 51.2127 25.5953 50.3562 25.5953 50.3562C25.5953 50.3562 24.7295 50.9218 24.4594 50.9569C24.1893 50.9919 23.7746 50.8522 23.7746 50.8522C23.7746 50.8522 24.277 50.7472 24.9274 50.0675C25.7551 49.4967 25.5597 49.019 25.5504 48.9378C24.2516 49.1389 23.8058 48.7804 23.8058 48.7804C23.8058 48.7804 24.6961 48.5385 24.7376 48.5222C25.0061 48.4169 25.3458 48.2332 25.5876 48.0656C25.7391 47.9606 24.5891 47.5016 24.5891 47.5016C24.5891 47.5016 25.4451 47.341 25.6834 47.1665C25.9217 46.992 26.0074 47.0389 26.121 46.8906C26.1727 46.826 26.2855 46.7172 26.1356 46.7414C25.6753 46.8158 24.6359 46.9259 24.6359 46.9259C24.6359 46.9259 24.7096 46.7131 25.1176 46.5766C25.5256 46.4401 25.9106 46.362 26.1125 46.1263C26.2608 45.9534 25.6527 46.1832 25.429 46.1396C25.2947 46.1134 25.173 46.1071 25.0416 46.0573C25.0416 46.0573 25.8698 45.7233 26.1877 45.4721C26.2657 45.4313 26.4172 45.1141 26.5088 45.1149C26.6139 45.1159 26.7253 45.1688 26.8251 45.2001C26.9209 45.23 27.0341 45.261 27.117 45.319C27.2108 45.3848 27.2802 45.4931 27.3795 45.5474C27.5257 45.6274 27.7473 45.5782 27.901 45.5456L27.9032 45.5451C28.0143 45.5216 28.0534 45.5133 28.1678 45.549C28.2285 45.568 28.4106 45.5902 28.4411 45.6484Z" fill="#FFC1AD"/>
<path d="M29.2785 46.7678C28.7902 46.615 28.6537 46.0546 28.4411 45.6484C28.4106 45.5902 28.2285 45.568 28.1678 45.549C28.0534 45.5133 28.0143 45.5216 27.9032 45.5451L27.901 45.5456C27.7473 45.5782 27.5257 45.6274 27.3795 45.5474C27.2802 45.4931 27.2108 45.3848 27.117 45.319C27.0341 45.261 26.9209 45.23 26.8251 45.2001C26.7253 45.1688 26.6139 45.1159 26.5088 45.1149C26.4172 45.1141 26.2657 45.4313 26.1877 45.4721C25.8698 45.7233 25.0416 46.0573 25.0416 46.0573C25.173 46.1071 25.2947 46.1134 25.429 46.1396C25.6527 46.1832 26.2608 45.9534 26.1125 46.1263C25.9106 46.362 25.5256 46.4401 25.1176 46.5766C24.7096 46.7131 24.6359 46.9259 24.6359 46.9259C24.6359 46.9259 25.6753 46.8158 26.1356 46.7414C26.2855 46.7172 26.1727 46.826 26.121 46.8906C26.0074 47.0389 25.9217 46.992 25.6834 47.1665C25.4451 47.341 24.5891 47.5016 24.5891 47.5016C24.5891 47.5016 25.7391 47.9606 25.5876 48.0656C25.3458 48.2332 25.0061 48.4169 24.7376 48.5222C24.6961 48.5385 23.8058 48.7804 23.8058 48.7804C23.8058 48.7804 24.2516 49.1389 25.5504 48.9378C25.5597 49.019 25.7551 49.4967 24.9274 50.0675C24.277 50.7472 23.7746 50.8522 23.7746 50.8522C23.7746 50.8522 24.1893 50.9919 24.4594 50.9569C24.7295 50.9218 25.5953 50.3562 25.5953 50.3562C25.5953 50.3562 25.2137 51.2127 24.7467 51.5348C24.4289 51.754 24.1563 52.1468 24.1563 52.1468L25.0575 51.7515C25.0575 51.7515 25.0698 52.0337 25.0263 52.1725C24.9473 52.4247 24.858 52.6136 24.658 52.7913C24.6541 52.7948 24.5112 53.0253 24.5112 53.0253C24.5112 53.0253 24.893 52.8201 24.9014 53.0327L24.9878 53.6918L25.4624 53.0224C25.4827 52.9577 25.5134 52.7493 25.5496 52.9052C25.5176 53.2255 26.1828 53.4336 26.1828 53.4336C26.1828 53.4336 25.7023 52.9282 25.7389 52.7258C25.7521 52.6532 25.8327 52.8426 25.8936 52.8843C25.9351 52.9129 25.9991 52.922 26.0469 52.9369C26.2128 52.9888 26.3892 52.9798 26.5585 52.9525C26.6291 52.9411 26.8867 52.8281 26.8867 52.8281C26.8867 52.8281 26.4904 52.7295 26.4185 52.6082C26.3247 52.4498 26.1875 52.4225 26.2579 52.1978C26.2814 52.1227 26.4487 52.2781 26.5363 52.3055C26.7561 52.3743 27.2189 52.3539 27.2189 52.3539C27.2189 52.3539 27.018 52.1871 26.9409 52.1202L26.9404 52.1197C26.8744 52.0623 26.4226 51.6697 26.6321 51.5602C26.6747 51.5379 26.878 51.7105 26.9414 51.7304C27.1982 51.8107 27.8688 51.6716 27.8688 51.6716L27.2571 51.2558C26.9107 50.9696 26.9742 50.7257 26.9688 50.4268C26.965 50.2204 27.0347 50.28 27.1512 50.4013C27.227 50.4803 27.2599 50.5179 27.375 50.5539C27.4853 50.5884 27.4952 50.6036 27.6084 50.627C27.6948 50.6448 28.226 50.5312 28.226 50.5312C28.226 50.5312 27.4463 49.9846 27.3874 49.4568C27.3755 49.35 27.3198 48.9316 27.5141 49.111C27.6543 49.2405 27.7161 49.4555 27.9378 49.473C28.2411 49.4969 28.8477 49.5214 28.8477 49.5214C28.8477 49.5214 28.4484 49.4116 28.3144 49.2674C28.2295 49.176 28.1924 49.0245 28.1464 48.9098C28.06 48.694 27.9467 48.5095 27.9089 48.2758C27.9022 48.234 27.8336 47.9626 27.9015 47.9477C27.9616 47.9345 27.9995 48.0462 28.0472 48.069C28.2904 48.185 28.6532 48.2923 28.9214 48.2531C28.9591 48.2475 29.221 48.1174 29.221 48.1174C29.221 48.1174 28.9345 47.993 28.8842 47.9616C28.6304 47.803 28.4069 47.4358 28.2362 47.1945C28.1199 47.0302 28.0039 46.7744 28.0064 46.5652C28.0072 46.5021 28.021 46.3085 28.0737 46.3431C28.4345 46.5803 28.9481 46.6603 29.3573 46.7883" stroke="#BF3F17" stroke-width="0.243098" stroke-linecap="round"/>
</g>
</g>
<g id="&#236;&#150;&#188;&#236;&#157;&#140;">
<path id="Rectangle 6" d="M22.9914 22.8865C23.0597 22.8426 23.1392 22.8193 23.2203 22.8193H31.0374C31.4605 22.8193 31.6223 23.3712 31.2663 23.5997L27.6713 25.9071C27.603 25.9509 27.5236 25.9742 27.4424 25.9742H19.6254C19.2023 25.9742 19.0404 25.4224 19.3965 25.1938L22.9914 22.8865Z" fill="#C7E8EF" stroke="black" stroke-width="0.243098"/>
<path id="Rectangle 7" d="M27.6018 25.533C27.4744 25.6097 27.3965 25.7474 27.3965 25.8961L27.3965 34.2819C27.3965 34.6115 27.7563 34.8149 28.0387 34.645L31.5982 32.5033C31.7255 32.4266 31.8034 32.2888 31.8034 32.1402L31.8034 23.7544C31.8034 23.4248 31.4437 23.2214 31.1612 23.3913L27.6018 25.533Z" fill="#C7E8EF" stroke="black" stroke-width="0.243098"/>
<rect id="Rectangle 5" x="18.7734" y="25.4453" width="9.36478" height="9.35873" rx="1.27124" fill="#C7E8EF" stroke="black" stroke-width="0.243098"/>
</g>
<g id="&#236;&#150;&#188;&#236;&#157;&#140;_2">
<path id="Rectangle 6_2" d="M27.3415 51.921C27.4057 51.8798 27.4803 51.8579 27.5565 51.8579H34.8983C35.2957 51.8579 35.4477 52.3762 35.1133 52.5908L31.7369 54.7579C31.6728 54.7991 31.5982 54.821 31.5219 54.821H24.1801C23.7828 54.821 23.6307 54.3027 23.9651 54.0881L27.3415 51.921Z" fill="#C7E8EF" stroke="black" stroke-width="0.243098"/>
<path id="Rectangle 7_2" d="M31.6723 54.4062C31.5527 54.4781 31.4795 54.6076 31.4795 54.7472L31.4795 62.6231C31.4795 62.9327 31.8174 63.1238 32.0827 62.9642L35.4257 60.9527C35.5454 60.8807 35.6185 60.7513 35.6185 60.6117L35.6185 52.7357C35.6185 52.4261 35.2806 52.2351 35.0154 52.3947L31.6723 54.4062Z" fill="#C7E8EF" stroke="black" stroke-width="0.243098"/>
<rect id="Rectangle 5_2" x="23.3809" y="54.3237" width="8.79544" height="8.78975" rx="1.19395" fill="#C7E8EF" stroke="black" stroke-width="0.243098"/>
</g>
<g id="&#236;&#150;&#188;&#236;&#157;&#140;_3">
<path id="Rectangle 6_3" d="M18.1293 37.4342C18.0746 37.3991 18.0109 37.3804 17.9458 37.3804H11.6769C11.3376 37.3804 11.2078 37.8229 11.4933 38.0062L14.3763 39.8566C14.4311 39.8917 14.4948 39.9104 14.5599 39.9104H20.8287C21.168 39.9104 21.2978 39.4679 21.0123 39.2846L18.1293 37.4342Z" fill="#C7E8EF" stroke="black" stroke-width="0.243098"/>
<path id="Rectangle 7_3" d="M14.4311 39.5567C14.5332 39.6182 14.5957 39.7287 14.5957 39.8479L14.5957 46.5729C14.5957 46.8372 14.3072 47.0003 14.0807 46.864L11.2262 45.1465C11.124 45.085 11.0616 44.9745 11.0616 44.8553L11.0616 38.1304C11.0616 37.866 11.3501 37.7029 11.5766 37.8392L14.4311 39.5567Z" fill="#C7E8EF" stroke="black" stroke-width="0.243098"/>
<rect id="Rectangle 5_3" width="7.51006" height="7.5052" rx="1.01946" transform="matrix(-1 0 0 1 21.5117 39.4863)" fill="#C7E8EF" stroke="black" stroke-width="0.243098"/>
</g>
<g id="&#236;&#158;&#142;_3">
<path id="Vector_7" d="M12.4201 50.6766C11.6654 50.9583 12.0686 52.7081 12.0686 52.7081C12.0686 52.7081 11.3927 53.1707 11.4884 53.7344C11.5841 54.2981 11.9991 54.6917 11.9991 54.6917C11.9991 54.6917 11.2922 55.4767 11.4667 55.9999C11.6317 56.4944 12.5788 56.7393 12.5788 56.7393C12.5788 56.7393 11.6748 57.6217 11.8495 58.2548C12.0175 58.8637 13.1691 59.191 13.1691 59.191C13.1691 59.191 12.6354 59.9414 12.7964 60.4141C12.9645 60.9076 13.9085 61.1535 13.9085 61.1535C13.9085 61.1535 13.4248 62.0027 13.4613 62.6212C13.4977 63.2397 14.6957 63.3979 14.6957 63.3979C14.6957 63.3979 13.8088 64.5358 14.155 65.1722C14.4956 65.7982 15.9016 65.7037 15.9016 65.7037C15.9016 65.7037 15.5361 66.9419 15.979 67.5254C16.4281 68.117 17.9804 67.9602 17.9804 67.9602C17.9804 67.9602 19.0078 69.2985 19.721 68.969C20.3711 68.6685 20.2553 67.2155 20.2553 67.2155C20.2553 67.2155 21.8042 66.2584 21.6964 65.3462C21.6083 64.6007 20.4482 64.0083 20.4482 64.0083C20.4482 64.0083 21.0446 62.7743 20.771 62.2341C20.5028 61.7043 19.2523 61.6413 19.2523 61.6413L19.4886 60.5796C19.2357 60.0695 18.3256 59.8247 18.3256 59.8247C18.3256 59.8247 18.7536 58.8974 18.4908 58.4048C18.228 57.9122 17.219 57.7505 17.219 57.7505C17.219 57.7505 17.7293 56.8724 17.5066 56.3678C17.2614 55.812 16.1125 55.6762 16.1125 55.6762C16.1125 55.6762 16.733 54.8382 16.5225 54.3308C16.3085 53.8152 15.2507 53.6765 15.2507 53.6765C15.2507 53.6765 15.4117 52.9457 15.1817 52.5863C14.9112 52.1636 13.9951 52.0915 13.9951 52.0915C13.9951 52.0915 13.1949 50.3875 12.4201 50.6766Z" fill="#237A2C" stroke="black" stroke-width="0.243098"/>
<g id="&#236;&#158;&#142;&#235;&#167;&#165;_3">
<path id="Vector 10_3" d="M12.4502 50.6929L19.5683 68.9232" stroke="#005108" stroke-width="0.243098"/>
<path id="Vector 15_3" d="M11.9318 57.9905L15.1343 57.7959L17.2913 56.131" stroke="#005108" stroke-width="0.243098"/>
<path id="Vector 16_3" d="M11.4573 55.8054L14.2672 55.4752L16.3174 54.1812" stroke="#005108" stroke-width="0.243098"/>
<path id="Vector 17_3" d="M11.4818 53.5659L13.521 53.5595L15.1374 52.4072" stroke="#005108" stroke-width="0.243098"/>
<path id="Vector 18_3" d="M12.839 60.3946L16.0276 60.1206L18.2474 58.2072" stroke="#005108" stroke-width="0.243098"/>
<path id="Vector 19_3" d="M13.4863 62.6301L16.8676 62.1011L19.421 60.5467" stroke="#005108" stroke-width="0.243098"/>
<path id="Vector 20_3" d="M14.184 64.5388L17.7651 64.4005L20.6041 62.1407" stroke="#005108" stroke-width="0.243098"/>
<path id="Vector 21_3" d="M15.7572 67.1449L18.6707 66.9848L21.4974 64.981" stroke="#005108" stroke-width="0.243098"/>
</g>
</g>
<g id="&#236;&#158;&#142;_4">
<path id="Vector_8" d="M34.8168 74.4924C34.2677 73.7737 32.5174 74.7775 32.5174 74.7775C32.5174 74.7775 31.7995 74.2024 31.2245 74.4891C30.6494 74.7757 30.3615 75.3499 30.3615 75.3499C30.3615 75.3499 29.2868 74.8467 28.781 75.2048C28.303 75.5433 28.3486 76.6404 28.3486 76.6404C28.3486 76.6404 27.1047 75.9573 26.4809 76.3515C25.8809 76.7305 25.9045 78.0741 25.9045 78.0741C25.9045 78.0741 24.9234 77.7457 24.4675 78.0728C23.9916 78.4143 24.0351 79.5084 24.0351 79.5084C24.0351 79.5084 22.9641 79.2659 22.3108 79.5068C21.6575 79.7477 21.8782 81.086 21.8782 81.086C21.8782 81.086 20.3651 80.5046 19.7937 81.0841C19.2316 81.6541 19.7918 83.1333 19.7918 83.1333C19.7918 83.1333 18.341 83.1446 17.858 83.8107C17.3682 84.486 18.0431 86.1021 18.0431 86.1021C18.0431 86.1021 16.939 87.6421 17.5261 88.3006C18.0612 88.9008 19.586 88.3025 19.586 88.3025C19.586 88.3025 21.1206 89.6539 22.0665 89.2406C22.8394 88.9028 23.0981 87.4636 23.0981 87.4636C23.0981 87.4636 24.6198 87.7015 25.1115 87.2316C25.5937 86.7706 25.2536 85.407 25.2536 85.407L26.4725 85.3145C26.9386 84.8765 26.905 83.8191 26.905 83.8191C26.905 83.8191 28.0418 83.9763 28.4859 83.5334C28.9299 83.0904 28.7747 81.954 28.7747 81.954C28.7747 81.954 29.8854 82.2157 30.3555 81.8119C30.8732 81.3672 30.6445 80.089 30.6445 80.089C30.6445 80.089 31.7481 80.482 32.2251 80.0904C32.7099 79.6924 32.514 78.5111 32.514 78.5111C32.514 78.5111 33.3524 78.4456 33.6639 78.0814C34.0303 77.6529 33.8089 76.6455 33.8089 76.6455C33.8089 76.6455 35.3805 75.2303 34.8168 74.4924Z" fill="#237A2C" stroke="black" stroke-width="0.243098"/>
<g id="&#236;&#158;&#142;&#235;&#167;&#165;_4">
<path id="Vector 10_4" d="M34.8096 74.5308L17.5259 88.1224" stroke="#005108" stroke-width="0.243098"/>
<path id="Vector 15_4" d="M26.7924 76.3547L28.0462 79.7309L30.5404 81.5046" stroke="#005108" stroke-width="0.243098"/>
<path id="Vector 16_4" d="M28.9881 75.1315L30.2598 78.0417L32.3202 79.8217" stroke="#005108" stroke-width="0.243098"/>
<path id="Vector 17_4" d="M31.403 74.4269L32.0751 76.6151L33.8415 77.9753" stroke="#005108" stroke-width="0.243098"/>
<path id="Vector 18_4" d="M24.5029 78.1124L25.8376 81.4477L28.6195 83.2077" stroke="#005108" stroke-width="0.243098"/>
<path id="Vector 19_4" d="M22.3096 79.5374L23.9814 82.9965L26.486 85.2319" stroke="#005108" stroke-width="0.243098"/>
<path id="Vector 20_4" d="M20.4839 80.9085L21.8007 84.7097L25.157 87.0218" stroke="#005108" stroke-width="0.243098"/>
<path id="Vector 21_4" d="M18.1943 83.4477L19.3168 86.5248L22.3938 88.9071" stroke="#005108" stroke-width="0.243098"/>
</g>
</g>
<g id="&#236;&#158;&#142;_5">
<path id="Vector_9" d="M32.3846 58.9328C31.8863 58.6649 31.1483 59.6879 31.1483 59.6879C31.1483 59.6879 30.5908 59.5454 30.3372 59.8569C30.0837 60.1685 30.0678 60.5698 30.0678 60.5698C30.0678 60.5698 29.3257 60.5602 29.13 60.8946C28.9451 61.2106 29.2542 61.8239 29.2542 61.8239C29.2542 61.8239 28.3693 61.7554 28.1157 62.1407C27.8717 62.5113 28.232 63.2707 28.232 63.2707C28.232 63.2707 27.5883 63.3365 27.413 63.6403C27.2301 63.9575 27.5373 64.5696 27.5373 64.5696C27.5373 64.5696 26.8645 64.7076 26.5545 65.0132C26.2446 65.3188 26.7157 66.0243 26.7157 66.0243C26.7157 66.0243 25.7037 66.0832 25.5277 66.5606C25.3546 67.0302 26.0556 67.7285 26.0556 67.7285C26.0556 67.7285 25.232 68.1089 25.1288 68.6129C25.0241 69.1238 25.8257 69.8705 25.8257 69.8705C25.8257 69.8705 25.5942 71.0324 26.0986 71.2562C26.5584 71.4602 27.2726 70.7263 27.2726 70.7263C27.2726 70.7263 28.4957 71.1005 28.9278 70.6212C29.2809 70.2296 29.0568 69.343 29.0568 69.343C29.0568 69.343 29.9851 69.0863 30.1439 68.6918C30.2996 68.3049 29.7539 67.6158 29.7539 67.6158L30.4244 67.2489C30.5769 66.8792 30.2848 66.2855 30.2848 66.2855C30.2848 66.2855 30.973 66.082 31.1116 65.7152C31.2503 65.3484 30.8685 64.741 30.8685 64.741C30.8685 64.741 31.5688 64.6037 31.7324 64.2526C31.9125 63.8658 31.4523 63.1966 31.4523 63.1966C31.4523 63.1966 32.1825 63.136 32.3531 62.7899C32.5265 62.4382 32.11 61.8158 32.11 61.8158C32.11 61.8158 32.5708 61.5623 32.6542 61.2745C32.7523 60.936 32.3662 60.4192 32.3662 60.4192C32.3662 60.4192 32.8961 59.2078 32.3846 58.9328Z" fill="#237A2C" stroke="black" stroke-width="0.243098"/>
<g id="&#236;&#158;&#142;&#235;&#167;&#165;_5">
<path id="Vector 10_5" d="M32.3896 58.957L26.0519 71.1553" stroke="#005108" stroke-width="0.243098"/>
<path id="Vector 15_5" d="M28.2936 62.0621L29.8793 63.6622L31.758 64.0297" stroke="#005108" stroke-width="0.243098"/>
<path id="Vector 16_5" d="M29.2283 60.8002L30.704 62.1303L32.3371 62.6131" stroke="#005108" stroke-width="0.243098"/>
<path id="Vector 17_5" d="M30.4224 59.7755L31.3701 60.8488L32.7274 61.1683" stroke="#005108" stroke-width="0.243098"/>
<path id="Vector 18_5" d="M27.4424 63.6541L29.0636 65.21L31.1027 65.4955" stroke="#005108" stroke-width="0.243098"/>
<path id="Vector 19_5" d="M26.562 65.0316L28.4072 66.5712L30.411 67.199" stroke="#005108" stroke-width="0.243098"/>
<path id="Vector 20_5" d="M25.875 66.2826L27.6063 68.1085L30.1151 68.5605" stroke="#005108" stroke-width="0.243098"/>
<path id="Vector 21_5" d="M25.2271 68.32L26.6609 69.7836L29.0287 70.3475" stroke="#005108" stroke-width="0.243098"/>
</g>
</g>
</g>
<g id="&#236;&#157;&#140;&#235;&#163;&#140;-&#237;&#140;&#140;&#235;&#158;&#145;">
<g id="&#235;&#160;&#136;&#235;&#170;&#172;">
<circle id="Ellipse 2" cx="108.354" cy="17.3389" r="11.2798" transform="rotate(10.5006 108.354 17.3389)" fill="#FCFF80" stroke="black" stroke-width="0.243098"/>
<circle id="Ellipse 3" cx="108.354" cy="17.3389" r="10.3074" transform="rotate(10.5006 108.354 17.3389)" fill="#FEFFCD" stroke="black" stroke-width="0.243098"/>
<g id="Group 11">
<path id="Slice - 5 (12.5%)" d="M107.458 16.3441L100.492 14.4544C100.993 12.6067 102.208 11.0339 103.869 10.0818L107.458 16.3441Z" fill="#FCFF80" stroke="black" stroke-width="0.243098"/>
<path id="Slice - 5 (12.5%)_2" d="M108.099 16.0863L104.754 9.68955C106.451 8.80256 108.43 8.62584 110.257 9.19826L108.099 16.0863Z" fill="#FCFF80" stroke="black" stroke-width="0.243098"/>
<path id="Slice - 5 (12.5%)_3" d="M109.156 16.3376L111.261 9.43322C113.093 9.99157 114.627 11.2545 115.527 12.9441L109.156 16.3376Z" fill="#FCFF80" stroke="black" stroke-width="0.243098"/>
<path id="Slice - 5 (12.5%)_4" d="M109.54 17.0284L115.992 13.7929C116.851 15.5042 116.994 17.4863 116.39 19.3031L109.54 17.0284Z" fill="#FCFF80" stroke="black" stroke-width="0.243098"/>
<path id="Slice - 5 (12.5%)_5" d="M107.068 17.4524L100.245 15.096C99.6204 16.9055 99.7398 18.8892 100.577 20.6106L107.068 17.4524Z" fill="#FCFF80" stroke="black" stroke-width="0.243098"/>
<path id="Slice - 5 (12.5%)_6" d="M107.453 18.0266L101.09 21.434C101.993 23.1217 103.53 24.3812 105.363 24.9356L107.453 18.0266Z" fill="#FCFF80" stroke="black" stroke-width="0.243098"/>
<path id="Slice - 5 (12.5%)_7" d="M108.469 18.4126L106.325 25.3053C108.153 25.8737 110.132 25.6927 111.827 24.802L108.469 18.4126Z" fill="#FCFF80" stroke="black" stroke-width="0.243098"/>
<path id="Slice - 5 (12.5%)_8" d="M109.175 18.0579L112.689 24.3627C114.361 23.4305 115.595 21.8723 116.118 20.0308L109.175 18.0579Z" fill="#FCFF80" stroke="black" stroke-width="0.243098"/>
</g>
</g>
<path id="Vector 1_2" d="M70.5904 91.0687L63.2275 17.7173H108.351L101.195 91.0687C101.195 91.0687 99.8347 94.6076 85.8926 94.6076C71.9506 94.6076 70.5904 91.0687 70.5904 91.0687Z" fill="#EFFCFF" stroke="black" stroke-width="0.243098"/>
<path id="Vector 4_2" d="M72.4807 89.2389L65.9863 24.5137H105.787L99.4752 89.2389C99.4752 89.2389 98.2754 92.3615 85.9779 92.3615C73.6804 92.3615 72.4807 89.2389 72.4807 89.2389Z" fill="#50CBF1" stroke="black" stroke-width="0.243098"/>
<g id="&#235;&#160;&#136;&#235;&#170;&#172;_2">
<circle id="Ellipse 2_2" cx="91.6279" cy="38.4395" r="11.2798" transform="rotate(10.5006 91.6279 38.4395)" fill="#FCFF80" stroke="black" stroke-width="0.243098"/>
<circle id="Ellipse 3_2" cx="91.6283" cy="38.4395" r="10.3074" transform="rotate(10.5006 91.6283 38.4395)" fill="#FEFFCD" stroke="black" stroke-width="0.243098"/>
<g id="Group 11_2">
<path id="Slice - 5 (12.5%)_9" d="M90.7318 37.4442L83.7653 35.5545C84.2665 33.7068 85.4811 32.134 87.142 31.1819L90.7318 37.4442Z" fill="#FCFF80" stroke="black" stroke-width="0.243098"/>
<path id="Slice - 5 (12.5%)_10" d="M91.372 37.1864L88.0276 30.7896C89.7241 29.9027 91.7035 29.7259 93.5303 30.2984L91.372 37.1864Z" fill="#FCFF80" stroke="black" stroke-width="0.243098"/>
<path id="Slice - 5 (12.5%)_11" d="M92.4296 37.4377L94.5348 30.5333C96.366 31.0917 97.9004 32.3546 98.8004 34.0442L92.4296 37.4377Z" fill="#FCFF80" stroke="black" stroke-width="0.243098"/>
<path id="Slice - 5 (12.5%)_12" d="M92.8134 38.1285L99.2658 34.893C100.124 36.6043 100.267 38.5864 99.6638 40.4032L92.8134 38.1285Z" fill="#FCFF80" stroke="black" stroke-width="0.243098"/>
<path id="Slice - 5 (12.5%)_13" d="M90.3415 38.5525L83.5188 36.1961C82.8938 38.0056 83.0133 39.9892 83.8509 41.7107L90.3415 38.5525Z" fill="#FCFF80" stroke="black" stroke-width="0.243098"/>
<path id="Slice - 5 (12.5%)_14" d="M90.7265 39.1267L84.3631 42.5341C85.2668 44.2218 86.8039 45.4813 88.6363 46.0357L90.7265 39.1267Z" fill="#FCFF80" stroke="black" stroke-width="0.243098"/>
<path id="Slice - 5 (12.5%)_15" d="M91.7421 39.5127L89.5988 46.4054C91.4268 46.9738 93.4058 46.7928 95.1004 45.9021L91.7421 39.5127Z" fill="#FCFF80" stroke="black" stroke-width="0.243098"/>
<path id="Slice - 5 (12.5%)_16" d="M92.4481 39.1585L95.9628 45.4633C97.6349 44.5311 98.8682 42.9729 99.3915 41.1314L92.4481 39.1585Z" fill="#FCFF80" stroke="black" stroke-width="0.243098"/>
</g>
</g>
<g id="&#237;&#140;&#140;&#236;&#157;&#184;&#236;&#149;&#160;&#237;&#148;&#140;">
<g id="Subtract">
<path fill-rule="evenodd" clip-rule="evenodd" d="M69.4587 33.9151L68.633 31.0149L70.7756 29.3763L68.4312 29.0638L68.5306 26.4409L71.277 25.9026L69.9333 24.1456L71.8944 22.1364L73.9161 23.1371L74.2185 20.8683L76.9158 20.843L77.3848 23.0991L79.3017 20.9878L82.0142 22.5808L81.7572 24.5092L79.2799 26.7365C78.0687 25.7232 76.276 25.6452 74.969 26.6448C73.5126 27.7586 73.1896 29.8047 74.1965 31.307L72.149 33.148L69.4587 33.9151Z" fill="#FFE871"/>
<path d="M68.633 31.0149L68.5591 30.9184L68.4934 30.9686L68.5161 31.0482L68.633 31.0149ZM69.4587 33.9151L69.3418 33.9484L69.3751 34.0653L69.492 34.032L69.4587 33.9151ZM70.7756 29.3763L70.8494 29.4728L71.0825 29.2946L70.7916 29.2558L70.7756 29.3763ZM68.4312 29.0638L68.3097 29.0592L68.3055 29.1697L68.4151 29.1843L68.4312 29.0638ZM68.5306 26.4409L68.5072 26.3216L68.4128 26.3401L68.4091 26.4363L68.5306 26.4409ZM71.277 25.9026L71.3004 26.0218L71.4925 25.9842L71.3736 25.8287L71.277 25.9026ZM69.9333 24.1456L69.8463 24.0607L69.7729 24.136L69.8368 24.2195L69.9333 24.1456ZM71.8944 22.1364L71.9483 22.0275L71.8691 21.9883L71.8074 22.0515L71.8944 22.1364ZM73.9161 23.1371L73.8622 23.246L74.0142 23.3212L74.0366 23.1531L73.9161 23.1371ZM74.2185 20.8683L74.2174 20.7468L74.112 20.7478L74.098 20.8523L74.2185 20.8683ZM76.9158 20.843L77.0348 20.8182L77.0145 20.7205L76.9146 20.7214L76.9158 20.843ZM77.3848 23.0991L77.2658 23.1238L77.3144 23.3575L77.4748 23.1808L77.3848 23.0991ZM79.3017 20.9878L79.3633 20.883L79.2781 20.8329L79.2118 20.9061L79.3017 20.9878ZM82.0142 22.5808L82.1347 22.5968L82.1454 22.5168L82.0758 22.476L82.0142 22.5808ZM81.7572 24.5092L81.8385 24.5996L81.8718 24.5697L81.8777 24.5253L81.7572 24.5092ZM79.2799 26.7365L79.202 26.8298L79.2828 26.8974L79.3612 26.8269L79.2799 26.7365ZM74.1965 31.307L74.2778 31.3974L74.3562 31.3269L74.2975 31.2393L74.1965 31.307ZM72.149 33.148L72.1823 33.2649L72.2094 33.2572L72.2303 33.2384L72.149 33.148ZM68.5161 31.0482L69.3418 33.9484L69.5756 33.8818L68.7499 30.9816L68.5161 31.0482ZM70.7017 29.2797L68.5591 30.9184L68.7068 31.1115L70.8494 29.4728L70.7017 29.2797ZM68.4151 29.1843L70.7595 29.4968L70.7916 29.2558L68.4472 28.9433L68.4151 29.1843ZM68.4091 26.4363L68.3097 29.0592L68.5526 29.0684L68.6521 26.4455L68.4091 26.4363ZM71.2536 25.7833L68.5072 26.3216L68.554 26.5602L71.3004 26.0218L71.2536 25.7833ZM69.8368 24.2195L71.1805 25.9764L71.3736 25.8287L70.0299 24.0718L69.8368 24.2195ZM71.8074 22.0515L69.8463 24.0607L70.0203 24.2305L71.9814 22.2213L71.8074 22.0515ZM73.9701 23.0281L71.9483 22.0275L71.8405 22.2454L73.8622 23.246L73.9701 23.0281ZM74.098 20.8523L73.7957 23.121L74.0366 23.1531L74.339 20.8844L74.098 20.8523ZM76.9146 20.7214L74.2174 20.7468L74.2197 20.9899L76.9169 20.9645L76.9146 20.7214ZM77.5038 23.0743L77.0348 20.8182L76.7968 20.8677L77.2658 23.1238L77.5038 23.0743ZM79.2118 20.9061L77.2948 23.0174L77.4748 23.1808L79.3917 21.0695L79.2118 20.9061ZM82.0758 22.476L79.3633 20.883L79.2402 21.0926L81.9527 22.6856L82.0758 22.476ZM81.8777 24.5253L82.1347 22.5968L81.8938 22.5647L81.6367 24.4932L81.8777 24.5253ZM79.3612 26.8269L81.8385 24.5996L81.676 24.4188L79.1987 26.6461L79.3612 26.8269ZM75.0428 26.7413C76.3037 25.777 78.0333 25.8521 79.202 26.8298L79.3579 26.6433C78.104 25.5942 76.2483 25.5133 74.8951 26.5482L75.0428 26.7413ZM74.2975 31.2393C73.326 29.7901 73.6378 27.8159 75.0428 26.7413L74.8951 26.5482C73.3875 27.7013 73.0531 29.8194 74.0956 31.3747L74.2975 31.2393ZM72.2303 33.2384L74.2778 31.3974L74.1153 31.2166L72.0677 33.0576L72.2303 33.2384ZM69.492 34.032L72.1823 33.2649L72.1157 33.0311L69.4254 33.7982L69.492 34.032Z" fill="black"/>
</g>
<path id="Vector 24" d="M73.4976 30.7414L70.0028 32.6896L69.7685 31.2085L73.4976 30.7414Z" fill="#FF6B00" stroke="#FFC804" stroke-width="0.243098"/>
<path id="Vector 28" d="M78.2432 25.6956L81.0386 22.8331L79.6706 22.2191L78.2432 25.6956Z" fill="#FF6B00" stroke="#FFC804" stroke-width="0.243098"/>
<path id="Vector 25" d="M73.4968 28.0501L69.5147 28.4391L69.8919 26.9878L73.4968 28.0501Z" fill="white" stroke="#FFC804" stroke-width="0.243098"/>
<path id="Vector 26" d="M74.111 26.4922L72.35 23.0506L71.4175 23.8789L74.111 26.4922Z" fill="#FF6B00" stroke="#FFC804" stroke-width="0.243098"/>
<path id="Vector 27" d="M76.321 25.7086L76.0404 21.8527L74.8588 22.2522L76.321 25.7086Z" fill="white" stroke="#FFC804" stroke-width="0.243098"/>
</g>
<g id="&#236;&#150;&#188;&#236;&#157;&#140;_4">
<path id="Rectangle 6_4" d="M98.5395 23.1105C98.4847 23.0753 98.421 23.0566 98.3559 23.0566H92.0871C91.7478 23.0566 91.618 23.4992 91.9035 23.6824L94.7865 25.5328C94.8412 25.568 94.9049 25.5867 94.97 25.5867H101.239C101.578 25.5867 101.708 25.1441 101.422 24.9609L98.5395 23.1105Z" fill="#C7E8EF" stroke="black" stroke-width="0.243098"/>
<path id="Rectangle 7_4" d="M94.8412 25.2325C94.9434 25.294 95.0059 25.4045 95.0059 25.5237L95.0059 32.2486C95.0059 32.513 94.7173 32.6761 94.4908 32.5398L91.6363 30.8223C91.5342 30.7608 91.4717 30.6503 91.4717 30.5311L91.4717 23.8061C91.4717 23.5418 91.7602 23.3787 91.9867 23.515L94.8412 25.2325Z" fill="#C7E8EF" stroke="black" stroke-width="0.243098"/>
<rect id="Rectangle 5_4" width="7.51006" height="7.5052" rx="1.01946" transform="matrix(-1 0 0 1 101.921 25.1621)" fill="#C7E8EF" stroke="black" stroke-width="0.243098"/>
</g>
<g id="&#236;&#150;&#188;&#236;&#157;&#140;_5">
<path id="Rectangle 6_5" d="M81.9309 48.8918C81.9992 48.848 82.0786 48.8247 82.1598 48.8247H89.9768C90.3999 48.8247 90.5618 49.3765 90.2057 49.6051L86.6108 51.9124C86.5425 51.9563 86.463 51.9796 86.3819 51.9796H78.5648C78.1417 51.9796 77.9799 51.4277 78.3359 51.1992L81.9309 48.8918Z" fill="#C7E8EF" stroke="black" stroke-width="0.243098"/>
<path id="Rectangle 7_5" d="M86.5422 51.5384C86.4148 51.615 86.3369 51.7528 86.3369 51.9015L86.3369 60.2873C86.3369 60.6169 86.6967 60.8203 86.9791 60.6503L90.5386 58.5087C90.666 58.432 90.7439 58.2942 90.7439 58.1456L90.7439 49.7598C90.7439 49.4302 90.3841 49.2267 90.1017 49.3967L86.5422 51.5384Z" fill="#C7E8EF" stroke="black" stroke-width="0.243098"/>
<rect id="Rectangle 5_5" x="77.7129" y="51.4507" width="9.36478" height="9.35873" rx="1.27124" fill="#C7E8EF" stroke="black" stroke-width="0.243098"/>
</g>
<g id="&#235;&#176;&#152; &#235;&#160;&#136;&#235;&#170;&#172;">
<g id="Subtract_2">
<path fill-rule="evenodd" clip-rule="evenodd" d="M73.0893 56.3567C72.8679 56.7431 72.667 57.1468 72.4885 57.5668C70.0529 63.3006 72.7265 69.9232 78.4603 72.3589C83.8086 74.6308 89.9303 72.4572 92.7059 67.5014L73.0893 56.3567Z" fill="#FCFF80"/>
<path d="M73.0893 56.3567L73.1493 56.2511L73.044 56.1912L72.9838 56.2963L73.0893 56.3567ZM92.7059 67.5014L92.8119 67.5608L92.871 67.4554L92.7659 67.3957L92.7059 67.5014ZM72.6004 57.6144C72.7769 57.1987 72.9757 56.7994 73.1947 56.4172L72.9838 56.2963C72.76 56.6869 72.557 57.0948 72.3766 57.5193L72.6004 57.6144ZM78.5078 72.247C72.8358 69.8376 70.191 63.2864 72.6004 57.6144L72.3766 57.5193C69.9148 63.3149 72.6172 70.0089 78.4128 72.4707L78.5078 72.247ZM92.5998 67.442C89.8542 72.3443 83.7984 74.4944 78.5078 72.247L78.4128 72.4707C83.8188 74.7672 90.0063 72.5702 92.8119 67.5608L92.5998 67.442ZM92.7659 67.3957L73.1493 56.2511L73.0292 56.4624L92.6458 67.6071L92.7659 67.3957Z" fill="black"/>
</g>
<g id="Subtract_3">
<path fill-rule="evenodd" clip-rule="evenodd" d="M73.9333 56.8363C73.73 57.1908 73.5455 57.5612 73.3817 57.9468C71.156 63.1862 73.5992 69.2379 78.8387 71.4636C83.7276 73.5404 89.3237 71.5521 91.8588 67.0201L73.9333 56.8363Z" fill="#FEFFCD"/>
<path d="M73.9333 56.8363L73.9934 56.7306L73.8881 56.6708L73.8279 56.7758L73.9333 56.8363ZM91.8588 67.0201L91.9649 67.0795L92.0239 66.9741L91.9189 66.9144L91.8588 67.0201ZM73.4936 57.9943C73.6555 57.6132 73.8378 57.2471 74.0388 56.8967L73.8279 56.7758C73.6221 57.1345 73.4355 57.5092 73.2698 57.8992L73.4936 57.9943ZM78.8862 71.3517C73.7085 69.1523 71.2941 63.172 73.4936 57.9943L73.2698 57.8992C71.0179 63.2005 73.4899 69.3236 78.7912 71.5755L78.8862 71.3517ZM91.7527 66.9608C89.2476 71.4392 83.7174 73.404 78.8862 71.3517L78.7912 71.5755C83.7378 73.6768 89.3999 71.665 91.9649 67.0795L91.7527 66.9608ZM91.9189 66.9144L73.9934 56.7306L73.8733 56.9419L91.7988 67.1258L91.9189 66.9144Z" fill="black"/>
</g>
<path id="Slice - 5 (12.5%)_17" d="M83.377 63.5006L89.7684 66.8551C88.8788 68.5502 87.3522 69.8225 85.5245 70.392L83.377 63.5006Z" fill="#FCFF80" stroke="black" stroke-width="0.243098"/>
<path id="Slice - 5 (12.5%)_18" d="M82.6948 63.6137L84.5736 70.5831C82.7252 71.0814 80.7546 70.825 79.0952 69.8703L82.6948 63.6137Z" fill="#FCFF80" stroke="black" stroke-width="0.243098"/>
<path id="Slice - 5 (12.5%)_19" d="M81.7166 63.1386L78.1653 69.4228C76.4986 68.4809 75.2744 66.9156 74.7618 65.071L81.7166 63.1386Z" fill="#FCFF80" stroke="black" stroke-width="0.243098"/>
<path id="Slice - 5 (12.5%)_20" d="M81.4922 62.3813L74.4919 64.1418C74.025 62.2852 74.3148 60.3192 75.2974 58.6763L81.4922 62.3813Z" fill="#FCFF80" stroke="black" stroke-width="0.243098"/>
</g>
<g id="&#236;&#150;&#188;&#236;&#157;&#140;_6">
<path id="Rectangle 6_6" d="M74.2063 36.7319C74.27 36.6914 74.344 36.6699 74.4196 36.6699H81.2948C81.6932 36.6699 81.8445 37.1904 81.5081 37.4039L78.3837 39.3877C78.3199 39.4282 78.2459 39.4497 78.1703 39.4497H71.2951C70.8967 39.4497 70.7455 38.9293 71.0818 38.7157L74.2063 36.7319Z" fill="#C7E8EF" stroke="black" stroke-width="0.243098"/>
<path id="Rectangle 7_6" d="M78.3302 39.0537C78.2096 39.1254 78.1357 39.2553 78.1357 39.3956L78.1357 46.7296C78.1357 47.0383 78.472 47.2295 78.7373 47.0716L81.8666 45.209C81.9872 45.1372 82.061 45.0073 82.061 44.867L82.061 37.533C82.061 37.2243 81.7248 37.0332 81.4595 37.1911L78.3302 39.0537Z" fill="#C7E8EF" stroke="black" stroke-width="0.243098"/>
<rect id="Rectangle 5_6" x="70.4541" y="38.9834" width="8.34126" height="8.24602" rx="1.19395" fill="#C7E8EF" stroke="black" stroke-width="0.243098"/>
</g>
<g id="&#237;&#140;&#140;&#236;&#157;&#184;&#236;&#149;&#160;&#237;&#148;&#140;_2">
<g id="Subtract_4">
<path fill-rule="evenodd" clip-rule="evenodd" d="M84.2402 54.2864L86.7255 52.5787L88.962 54.0867L88.5103 51.7651L91.0279 51.0227L92.4142 53.454L93.6507 51.62L96.1805 52.8378L95.877 55.0731L98.1237 54.636L99.0081 57.1843L97.0195 58.3484L99.6319 59.4918L98.9874 62.5707L97.0777 62.9423L94.1763 61.3048C94.7504 59.8335 94.2525 58.1096 92.8882 57.1897C91.3681 56.1647 89.3257 56.5112 88.2231 57.9448L85.8254 56.5915L84.2402 54.2864Z" fill="#FFE871"/>
<path d="M86.7255 52.5787L86.7934 52.478L86.7248 52.4317L86.6567 52.4786L86.7255 52.5787ZM84.2402 54.2864L84.1714 54.1862L84.0712 54.2551L84.1401 54.3553L84.2402 54.2864ZM88.962 54.0867L88.894 54.1875L89.1373 54.3516L89.0813 54.0635L88.962 54.0867ZM88.5103 51.7651L88.4759 51.6486L88.3699 51.6798L88.391 51.7884L88.5103 51.7651ZM91.0279 51.0227L91.1335 50.9625L91.0859 50.8789L90.9936 50.9061L91.0279 51.0227ZM92.4142 53.454L92.3086 53.5142L92.4056 53.6842L92.515 53.5219L92.4142 53.454ZM93.6507 51.62L93.7035 51.5105L93.6087 51.4649L93.55 51.5521L93.6507 51.62ZM96.1805 52.8378L96.301 52.8541L96.3129 52.7666L96.2332 52.7283L96.1805 52.8378ZM95.877 55.0731L95.7566 55.0568L95.7338 55.2248L95.9002 55.1924L95.877 55.0731ZM98.1237 54.636L98.2386 54.5962L98.204 54.4966L98.1005 54.5167L98.1237 54.636ZM99.0081 57.1843L99.0695 57.2892L99.1557 57.2388L99.123 57.1444L99.0081 57.1843ZM97.0195 58.3484L96.9581 58.2435L96.7521 58.3641L96.9707 58.4598L97.0195 58.3484ZM99.6319 59.4918L99.7509 59.5167L99.7711 59.4201L99.6807 59.3805L99.6319 59.4918ZM98.9874 62.5707L99.0106 62.6901L99.0898 62.6746L99.1063 62.5956L98.9874 62.5707ZM97.0777 62.9423L97.0179 63.0481L97.0569 63.0701L97.1009 63.0616L97.0777 62.9423ZM94.1763 61.3048L94.0631 61.2606L94.0248 61.3588L94.1166 61.4106L94.1763 61.3048ZM88.2231 57.9448L88.1634 58.0506L88.2552 58.1024L88.3195 58.0189L88.2231 57.9448ZM85.8254 56.5915L85.7252 56.6604L85.7412 56.6835L85.7657 56.6973L85.8254 56.5915ZM86.6567 52.4786L84.1714 54.1862L84.3091 54.3866L86.7943 52.6789L86.6567 52.4786ZM89.0299 53.9859L86.7934 52.478L86.6575 52.6795L88.894 54.1875L89.0299 53.9859ZM88.391 51.7884L88.8427 54.1099L89.0813 54.0635L88.6296 51.7419L88.391 51.7884ZM90.9936 50.9061L88.4759 51.6486L88.5447 51.8817L91.0623 51.1393L90.9936 50.9061ZM92.5198 53.3937L91.1335 50.9625L90.9223 51.0829L92.3086 53.5142L92.5198 53.3937ZM93.55 51.5521L92.3134 53.386L92.515 53.5219L93.7515 51.688L93.55 51.5521ZM96.2332 52.7283L93.7035 51.5105L93.598 51.7296L96.1278 52.9473L96.2332 52.7283ZM95.9975 55.0895L96.301 52.8541L96.0601 52.8214L95.7566 55.0568L95.9975 55.0895ZM98.1005 54.5167L95.8538 54.9538L95.9002 55.1924L98.1469 54.7553L98.1005 54.5167ZM99.123 57.1444L98.2386 54.5962L98.0089 54.6759L98.8933 57.2241L99.123 57.1444ZM97.0809 58.4533L99.0695 57.2892L98.9467 57.0794L96.9581 58.2435L97.0809 58.4533ZM99.6807 59.3805L97.0682 58.2371L96.9707 58.4598L99.5832 59.6032L99.6807 59.3805ZM99.1063 62.5956L99.7509 59.5167L99.513 59.4669L98.8684 62.5458L99.1063 62.5956ZM97.1009 63.0616L99.0106 62.6901L98.9642 62.4514L97.0545 62.823L97.1009 63.0616ZM94.1166 61.4106L97.0179 63.0481L97.1374 62.8364L94.2361 61.1989L94.1166 61.4106ZM92.8203 57.2905C94.1364 58.1779 94.617 59.8412 94.0631 61.2606L94.2896 61.3489C94.8839 59.8259 94.3686 58.0413 92.9562 57.0889L92.8203 57.2905ZM88.3195 58.0189C89.3832 56.6359 91.3537 56.3016 92.8203 57.2905L92.9562 57.0889C91.3825 56.0278 89.2683 56.3866 88.1268 57.8707L88.3195 58.0189ZM85.7657 56.6973L88.1634 58.0506L88.2829 57.8389L85.8851 56.4856L85.7657 56.6973ZM84.1401 54.3553L85.7252 56.6604L85.9256 56.5226L84.3404 54.2175L84.1401 54.3553Z" fill="black"/>
</g>
<path id="Vector 24_2" d="M88.5367 57.1023L85.5756 54.4115L86.9046 53.717L88.5367 57.1023Z" fill="#FF6B00" stroke="#FFC804" stroke-width="0.243098"/>
<path id="Vector 28_2" d="M94.8319 59.9904L98.4366 61.7268L98.5822 60.2343L94.8319 59.9904Z" fill="#FF6B00" stroke="#FFC804" stroke-width="0.243098"/>
<path id="Vector 25_2" d="M91.0872 56.242L89.4483 52.592L90.9441 52.4865L91.0872 56.242Z" fill="white" stroke="#FFC804" stroke-width="0.243098"/>
<path id="Vector 26_2" d="M92.7591 56.3279L95.4593 53.5611L94.3768 52.9415L92.7591 56.3279Z" fill="#FF6B00" stroke="#FFC804" stroke-width="0.243098"/>
<path id="Vector 27_2" d="M94.2059 58.1723L97.7708 56.6764L97.0153 55.684L94.2059 58.1723Z" fill="white" stroke="#FFC804" stroke-width="0.243098"/>
</g>
</g>
</g>
<g id="Group 2293">
<g id="&#236;&#157;&#140;&#235;&#163;&#140;-&#236;&#163;&#188;&#235;&#133;&#184;">
<g id="&#235;&#157;&#188;&#236;&#158;&#132;">
<circle id="Ellipse 2_3" cx="173.626" cy="18.147" r="11.2798" transform="rotate(10.5006 173.626 18.147)" fill="#B6EF6E" stroke="black" stroke-width="0.243098"/>
<circle id="Ellipse 3_3" cx="173.626" cy="18.1465" r="10.3074" transform="rotate(10.5006 173.626 18.1465)" fill="#F2FFCD" stroke="black" stroke-width="0.243098"/>
<g id="Group 11_3">
<path id="Slice - 5 (12.5%)_21" d="M172.731 17.1518L165.764 15.262C166.266 13.4144 167.48 11.8415 169.141 10.8894L172.731 17.1518Z" fill="#B6EF6E" stroke="black" stroke-width="0.243098"/>
<path id="Slice - 5 (12.5%)_22" d="M173.371 16.8934L170.027 10.4967C171.723 9.60969 173.703 9.43297 175.529 10.0054L173.371 16.8934Z" fill="#B6EF6E" stroke="black" stroke-width="0.243098"/>
<path id="Slice - 5 (12.5%)_23" d="M174.429 17.1452L176.534 10.2408C178.365 10.7992 179.899 12.0621 180.799 13.7517L174.429 17.1452Z" fill="#B6EF6E" stroke="black" stroke-width="0.243098"/>
<path id="Slice - 5 (12.5%)_24" d="M174.812 17.8356L181.265 14.6C182.123 16.3113 182.266 18.2934 181.663 20.1103L174.812 17.8356Z" fill="#B6EF6E" stroke="black" stroke-width="0.243098"/>
<path id="Slice - 5 (12.5%)_25" d="M172.341 18.2595L165.518 15.9031C164.893 17.7126 165.012 19.6963 165.85 21.4177L172.341 18.2595Z" fill="#B6EF6E" stroke="black" stroke-width="0.243098"/>
<path id="Slice - 5 (12.5%)_26" d="M172.726 18.8337L166.362 22.2411C167.266 23.9288 168.803 25.1884 170.635 25.7427L172.726 18.8337Z" fill="#B6EF6E" stroke="black" stroke-width="0.243098"/>
<path id="Slice - 5 (12.5%)_27" d="M173.741 19.2202L171.598 26.1129C173.426 26.6813 175.405 26.5003 177.099 25.6096L173.741 19.2202Z" fill="#B6EF6E" stroke="black" stroke-width="0.243098"/>
<path id="Slice - 5 (12.5%)_28" d="M174.447 18.8651L177.962 25.1698C179.634 24.2377 180.867 22.6795 181.39 20.8379L174.447 18.8651Z" fill="#B6EF6E" stroke="black" stroke-width="0.243098"/>
</g>
</g>
<path id="Vector 1_3" d="M135.863 91.8768L128.5 18.5254H173.623L166.467 91.8768C166.467 91.8768 165.107 95.4157 151.165 95.4157C137.223 95.4157 135.863 91.8768 135.863 91.8768Z" fill="#FFFDEF" stroke="black" stroke-width="0.243098"/>
<path id="Vector 4_3" d="M137.753 90.047L131.259 25.3218H171.059L164.748 90.047C164.748 90.047 163.548 93.1696 151.25 93.1696C138.953 93.1696 137.753 90.047 137.753 90.047Z" fill="url(#paint1_linear_3853_14671)" stroke="black" stroke-width="0.243098"/>
</g>
<g id="&#236;&#157;&#140;&#235;&#163;&#140;-&#236;&#178;&#173;&#234;&#183;&#164;">
<g id="&#235;&#157;&#188;&#236;&#158;&#132;_2">
<circle id="Ellipse 2_4" cx="235.854" cy="18.1466" r="11.2798" transform="rotate(10.5006 235.854 18.1466)" fill="#B6EF6E" stroke="black" stroke-width="0.243098"/>
<circle id="Ellipse 3_4" cx="235.854" cy="18.1465" r="10.3074" transform="rotate(10.5006 235.854 18.1465)" fill="#F2FFCD" stroke="black" stroke-width="0.243098"/>
<g id="Group 11_4">
<path id="Slice - 5 (12.5%)_29" d="M234.958 17.1518L227.992 15.262C228.493 13.4144 229.708 11.8415 231.369 10.8894L234.958 17.1518Z" fill="#B6EF6E" stroke="black" stroke-width="0.243098"/>
<path id="Slice - 5 (12.5%)_30" d="M235.6 16.8934L232.255 10.4967C233.952 9.60969 235.931 9.43297 237.758 10.0054L235.6 16.8934Z" fill="#B6EF6E" stroke="black" stroke-width="0.243098"/>
<path id="Slice - 5 (12.5%)_31" d="M236.657 17.1452L238.762 10.2408C240.594 10.7992 242.128 12.0621 243.028 13.7517L236.657 17.1452Z" fill="#B6EF6E" stroke="black" stroke-width="0.243098"/>
<path id="Slice - 5 (12.5%)_32" d="M237.041 17.8361L243.493 14.6005C244.351 16.3118 244.495 18.2939 243.891 20.1108L237.041 17.8361Z" fill="#B6EF6E" stroke="black" stroke-width="0.243098"/>
<path id="Slice - 5 (12.5%)_33" d="M234.569 18.259L227.746 15.9026C227.121 17.7121 227.241 19.6958 228.078 21.4172L234.569 18.259Z" fill="#B6EF6E" stroke="black" stroke-width="0.243098"/>
<path id="Slice - 5 (12.5%)_34" d="M234.954 18.8337L228.591 22.2411C229.494 23.9288 231.031 25.1884 232.864 25.7427L234.954 18.8337Z" fill="#B6EF6E" stroke="black" stroke-width="0.243098"/>
<path id="Slice - 5 (12.5%)_35" d="M235.97 19.2202L233.826 26.1129C235.654 26.6813 237.633 26.5003 239.328 25.6096L235.97 19.2202Z" fill="#B6EF6E" stroke="black" stroke-width="0.243098"/>
<path id="Slice - 5 (12.5%)_36" d="M236.676 18.8651L240.19 25.1698C241.862 24.2377 243.096 22.6795 243.619 20.8379L236.676 18.8651Z" fill="#B6EF6E" stroke="black" stroke-width="0.243098"/>
</g>
</g>
<path id="Vector 5" d="M198.09 91.8768L190.728 18.5254H235.851L228.695 91.8768C228.695 91.8768 227.335 95.4157 213.393 95.4157C199.451 95.4157 198.09 91.8768 198.09 91.8768Z" fill="#F6FFEF" stroke="black" stroke-width="0.243098"/>
<path id="Vector 6" d="M199.981 90.047L193.486 25.3218H233.287L226.975 90.047C226.975 90.047 225.775 93.1696 213.478 93.1696C201.18 93.1696 199.981 90.047 199.981 90.047Z" fill="#66DA87" stroke="black" stroke-width="0.243098"/>
<g id="&#236;&#150;&#188;&#236;&#157;&#140;_7">
<path id="Rectangle 6_7" d="M205.729 39.0875C205.674 39.0524 205.61 39.0337 205.545 39.0337H199.277C198.937 39.0337 198.807 39.4762 199.093 39.6595L201.976 41.5099C202.031 41.545 202.094 41.5637 202.159 41.5637H208.428C208.768 41.5637 208.897 41.1212 208.612 40.9379L205.729 39.0875Z" fill="#C7E8EF" stroke="black" stroke-width="0.243098"/>
<path id="Rectangle 7_7" d="M202.031 41.2096C202.133 41.271 202.195 41.3815 202.195 41.5007L202.195 48.2257C202.195 48.49 201.907 48.6531 201.68 48.5169L198.826 46.7993C198.724 46.7379 198.661 46.6274 198.661 46.5082L198.661 39.7832C198.661 39.5189 198.95 39.3557 199.176 39.492L202.031 41.2096Z" fill="#C7E8EF" stroke="black" stroke-width="0.243098"/>
<rect id="Rectangle 5_7" width="7.51006" height="7.50521" rx="1.01946" transform="matrix(-1 0 0 1 209.111 41.1392)" fill="#C7E8EF" stroke="black" stroke-width="0.243098"/>
</g>
<g id="&#236;&#150;&#188;&#236;&#157;&#140;_8">
<path id="Rectangle 6_8" d="M217.125 22.2786C217.194 22.2347 217.273 22.2114 217.354 22.2114H225.171C225.594 22.2114 225.756 22.7633 225.4 22.9918L221.805 25.2992C221.737 25.343 221.657 25.3663 221.576 25.3663H213.759C213.336 25.3663 213.174 24.8145 213.53 24.5859L217.125 22.2786Z" fill="#C7E8EF" stroke="black" stroke-width="0.243098"/>
<path id="Rectangle 7_8" d="M221.737 24.9251C221.609 25.0017 221.531 25.1395 221.531 25.2882L221.531 33.674C221.531 34.0036 221.891 34.207 222.173 34.0371L225.733 31.8954C225.86 31.8187 225.938 31.6809 225.938 31.5323L225.938 23.1465C225.938 22.8169 225.578 22.6135 225.296 22.7834L221.737 24.9251Z" fill="#C7E8EF" stroke="black" stroke-width="0.243098"/>
<rect id="Rectangle 5_8" x="212.907" y="24.8369" width="9.36478" height="9.35873" rx="1.27124" fill="#C7E8EF" stroke="black" stroke-width="0.243098"/>
</g>
<g id="&#235;&#176;&#152; &#236;&#178;&#173;&#234;&#183;&#164;">
<g id="Subtract_5">
<path fill-rule="evenodd" clip-rule="evenodd" d="M197.003 20.1157C196.782 20.5022 196.581 20.9059 196.403 21.3261C193.967 27.0599 196.641 33.6825 202.374 36.1181C207.723 38.3901 213.845 36.2164 216.62 31.2603L197.003 20.1157Z" fill="#B6EF6E"/>
<path d="M197.003 20.1157L197.064 20.01L196.958 19.9502L196.898 20.0552L197.003 20.1157ZM216.62 31.2603L216.726 31.3197L216.785 31.2143L216.68 31.1546L216.62 31.2603ZM196.514 21.3736C196.691 20.9579 196.89 20.5584 197.109 20.1761L196.898 20.0552C196.674 20.4459 196.471 20.854 196.291 21.2786L196.514 21.3736ZM202.422 36.0063C196.75 33.5969 194.105 27.0456 196.514 21.3736L196.291 21.2786C193.829 27.0741 196.531 33.7681 202.327 36.23L202.422 36.0063ZM216.514 31.2009C213.768 36.1035 207.713 38.2537 202.422 36.0063L202.327 36.23C207.733 38.5265 213.921 36.3293 216.726 31.3197L216.514 31.2009ZM216.68 31.1546L197.064 20.01L196.943 20.2214L216.56 31.366L216.68 31.1546Z" fill="black"/>
</g>
<g id="Subtract_6">
<path fill-rule="evenodd" clip-rule="evenodd" d="M197.849 20.5959C197.646 20.9503 197.461 21.3206 197.298 21.706C195.072 26.9455 197.515 32.9972 202.755 35.2229C207.644 37.2996 213.24 35.3115 215.775 30.7798L197.849 20.5959Z" fill="#F2FFCD"/>
<path d="M197.849 20.5959L197.909 20.4902L197.804 20.4304L197.744 20.5354L197.849 20.5959ZM215.775 30.7798L215.881 30.8391L215.94 30.7337L215.835 30.6741L215.775 30.7798ZM197.41 21.7536C197.571 21.3726 197.754 21.0066 197.955 20.6564L197.744 20.5354C197.538 20.894 197.351 21.2686 197.186 21.6585L197.41 21.7536ZM202.802 35.111C197.625 32.9116 195.21 26.9313 197.41 21.7536L197.186 21.6585C194.934 26.9598 197.406 33.0829 202.707 35.3348L202.802 35.111ZM215.669 30.7204C213.163 35.1986 207.633 37.1632 202.802 35.111L202.707 35.3348C207.654 37.436 213.316 35.4244 215.881 30.8391L215.669 30.7204ZM215.835 30.6741L197.909 20.4902L197.789 20.7016L215.715 30.8854L215.835 30.6741Z" fill="black"/>
</g>
<path id="Slice - 5 (12.5%)_37" d="M207.291 27.2599L213.682 30.6143C212.793 32.3095 211.266 33.5817 209.439 34.1513L207.291 27.2599Z" fill="#FFE819" stroke="black" stroke-width="0.243098"/>
<path id="Slice - 5 (12.5%)_38" d="M206.609 27.3729L208.488 34.3424C206.639 34.8407 204.669 34.5843 203.009 33.6296L206.609 27.3729Z" fill="#FFE819" stroke="black" stroke-width="0.243098"/>
<path id="Slice - 5 (12.5%)_39" d="M205.632 26.8979L202.08 33.1821C200.414 32.2402 199.189 30.6748 198.677 28.8303L205.632 26.8979Z" fill="#FFE819" stroke="black" stroke-width="0.243098"/>
<path id="Slice - 5 (12.5%)_40" d="M205.406 26.1406L198.406 27.9011C197.939 26.0445 198.229 24.0785 199.211 22.4355L205.406 26.1406Z" fill="#FFE819" stroke="black" stroke-width="0.243098"/>
</g>
<g id="&#235;&#176;&#152; &#236;&#178;&#173;&#234;&#183;&#164;_2">
<g id="Subtract_7">
<path fill-rule="evenodd" clip-rule="evenodd" d="M199.719 70.0493C199.82 69.7136 199.943 69.3803 200.087 69.0509C202.053 64.5565 207.29 62.5067 211.785 64.4727C215.977 66.3066 218.042 70.9867 216.705 75.2553L199.719 70.0493Z" fill="#B6EF6E"/>
<path d="M199.719 70.0493L199.691 70.1408L199.6 70.1129L199.627 70.0216L199.719 70.0493ZM216.705 75.2553L216.797 75.2839L216.768 75.3747L216.677 75.3468L216.705 75.2553ZM200.175 69.0893C200.032 69.4151 199.911 69.7449 199.811 70.077L199.627 70.0216C199.73 69.6823 199.854 69.3454 199.999 69.0125L200.175 69.0893ZM211.746 64.5604C207.3 62.6156 202.12 64.6433 200.175 69.0893L199.999 69.0125C201.986 64.4697 207.28 62.3979 211.823 64.385L211.746 64.5604ZM216.614 75.2267C217.936 71.0042 215.893 66.3745 211.746 64.5604L211.823 64.385C216.061 66.2387 218.148 70.9692 216.797 75.2839L216.614 75.2267ZM216.677 75.3468L199.691 70.1408L199.747 69.9578L216.733 75.1638L216.677 75.3468Z" fill="black"/>
</g>
<g id="Subtract_8">
<path fill-rule="evenodd" clip-rule="evenodd" d="M200.451 70.2738C200.544 69.9657 200.656 69.6598 200.788 69.3576C202.585 65.2506 207.371 63.3776 211.478 65.1741C215.31 66.8504 217.197 71.1293 215.973 75.0309L200.451 70.2738Z" fill="#F2FFCD"/>
<path d="M200.451 70.2738L200.423 70.3653L200.332 70.3374L200.359 70.2461L200.451 70.2738ZM215.973 75.0309L216.064 75.0596L216.036 75.1503L215.945 75.1225L215.973 75.0309ZM200.876 69.3959C200.746 69.6947 200.635 69.997 200.543 70.3015L200.359 70.2461C200.453 69.9344 200.567 69.6249 200.701 69.3192L200.876 69.3959ZM211.439 65.2618C207.381 63.4865 202.652 65.3374 200.876 69.3959L200.701 69.3192C202.518 65.1638 207.361 63.2687 211.516 65.0864L211.439 65.2618ZM215.882 75.0023C217.091 71.1468 215.226 66.9183 211.439 65.2618L211.516 65.0864C215.394 66.7825 217.303 71.1119 216.064 75.0596L215.882 75.0023ZM215.945 75.1225L200.423 70.3653L200.479 70.1823L216.001 74.9394L215.945 75.1225Z" fill="black"/>
</g>
<path id="Slice - 5 (12.5%)_41" d="M209.371 72.0768L214.747 73.9225C215.236 72.4967 215.139 70.9348 214.477 69.5805L209.371 72.0768Z" fill="#FFE819" stroke="black" stroke-width="0.191431"/>
<path id="Slice - 5 (12.5%)_42" d="M209.068 71.6252L214.074 68.9329C213.36 67.6052 212.147 66.6155 210.704 66.1816L209.068 71.6252Z" fill="#FFE819" stroke="black" stroke-width="0.191431"/>
<path id="Slice - 5 (12.5%)_43" d="M208.267 71.3223L209.945 65.8915C208.504 65.4465 206.946 65.5919 205.613 66.2957L208.267 71.3223Z" fill="#FFE819" stroke="black" stroke-width="0.191431"/>
<path id="Slice - 5 (12.5%)_44" d="M207.711 71.6027L204.935 66.643C203.619 67.3794 202.65 68.6083 202.241 70.0591L207.711 71.6027Z" fill="#FFE819" stroke="black" stroke-width="0.191431"/>
</g>
<g id="&#236;&#178;&#173;&#234;&#183;&#164;">
<circle id="Ellipse 2_5" cx="218.558" cy="50.2359" r="11.2798" transform="rotate(10.5006 218.558 50.2359)" fill="#B6EF6E" stroke="black" stroke-width="0.243098"/>
<circle id="Ellipse 3_5" cx="218.558" cy="50.2359" r="10.3074" transform="rotate(10.5006 218.558 50.2359)" fill="#F2FFCD" stroke="black" stroke-width="0.243098"/>
<g id="Group 11_5">
<path id="Slice - 5 (12.5%)_45" d="M217.662 49.2406L210.696 47.3508C211.197 45.5032 212.412 43.9304 214.073 42.9783L217.662 49.2406Z" fill="#FFE819" stroke="black" stroke-width="0.243098"/>
<path id="Slice - 5 (12.5%)_46" d="M218.304 48.9823L214.959 42.5855C216.656 41.6986 218.635 41.5218 220.462 42.0943L218.304 48.9823Z" fill="#FFE819" stroke="black" stroke-width="0.243098"/>
<path id="Slice - 5 (12.5%)_47" d="M219.36 49.2341L221.466 42.3297C223.297 42.8881 224.831 44.151 225.731 45.8406L219.36 49.2341Z" fill="#FFE819" stroke="black" stroke-width="0.243098"/>
<path id="Slice - 5 (12.5%)_48" d="M219.745 49.9249L226.197 46.6894C227.056 48.4007 227.199 50.3828 226.595 52.1996L219.745 49.9249Z" fill="#FFE819" stroke="black" stroke-width="0.243098"/>
<path id="Slice - 5 (12.5%)_49" d="M217.272 50.3484L210.449 47.992C209.824 49.8015 209.944 51.7851 210.782 53.5066L217.272 50.3484Z" fill="#FFE819" stroke="black" stroke-width="0.243098"/>
<path id="Slice - 5 (12.5%)_50" d="M217.657 50.9226L211.294 54.33C212.197 56.0177 213.735 57.2772 215.567 57.8316L217.657 50.9226Z" fill="#FFE819" stroke="black" stroke-width="0.243098"/>
<path id="Slice - 5 (12.5%)_51" d="M218.673 51.309L216.529 58.2017C218.358 58.7702 220.337 58.5891 222.031 57.6985L218.673 51.309Z" fill="#FFE819" stroke="black" stroke-width="0.243098"/>
<path id="Slice - 5 (12.5%)_52" d="M219.38 50.9544L222.894 57.2592C224.567 56.327 225.8 54.7688 226.323 52.9273L219.38 50.9544Z" fill="#FFE819" stroke="black" stroke-width="0.243098"/>
</g>
</g>
<g id="&#236;&#150;&#188;&#236;&#157;&#140;_9">
<path id="Rectangle 6_9" d="M214.968 57.1703C215.019 57.1378 215.078 57.1206 215.139 57.1206H220.65C220.969 57.1206 221.09 57.5377 220.821 57.7089L218.316 59.299C218.265 59.3314 218.206 59.3487 218.145 59.3487H212.635C212.315 59.3487 212.194 58.9315 212.464 58.7604L214.968 57.1703Z" fill="#C7E8EF" stroke="black" stroke-width="0.19485"/>
<path id="Rectangle 7_9" d="M218.273 59.0314C218.176 59.0889 218.117 59.193 218.117 59.3055L218.117 65.1838C218.117 65.4313 218.387 65.5845 218.599 65.458L221.108 63.965C221.204 63.9075 221.263 63.8034 221.263 63.6909L221.263 57.8126C221.263 57.5651 220.994 57.4119 220.781 57.5384L218.273 59.0314Z" fill="#C7E8EF" stroke="black" stroke-width="0.19485"/>
<rect id="Rectangle 5_9" x="211.961" y="58.9746" width="6.68575" height="6.6094" rx="0.956983" fill="#C7E8EF" stroke="black" stroke-width="0.19485"/>
</g>
</g>
</g>
</g>
<defs>
<linearGradient id="paint0_linear_3853_14671" x1="39.8039" y1="17.8943" x2="33.8308" y2="17.8943" gradientUnits="userSpaceOnUse">
<stop stop-color="#9E00FF"/>
<stop offset="0.185" stop-color="#222C61"/>
<stop offset="0.345" stop-color="#0035BE"/>
<stop offset="0.51" stop-color="#00C34E"/>
<stop offset="0.67" stop-color="#FFF500"/>
<stop offset="0.83" stop-color="#F27400"/>
<stop offset="1" stop-color="#FF0000"/>
</linearGradient>
<linearGradient id="paint1_linear_3853_14671" x1="151.159" y1="25.3218" x2="151.159" y2="93.1696" gradientUnits="userSpaceOnUse">
<stop stop-color="#FFE860"/>
<stop offset="1" stop-color="#FF581B"/>
</linearGradient>
</defs>
</svg>
