<svg width="28" height="27" viewBox="0 0 28 27" fill="none" xmlns="http://www.w3.org/2000/svg">
<path d="M13.3323 21.2179C12.8798 21.2179 12.317 21.1265 11.8737 21.225C11.3309 21.3456 12.2117 22.2497 12.3433 22.3066C13.3346 22.7346 15.2697 22.9244 16.2638 22.3564C16.6435 22.1394 17.619 21.4413 17.6798 20.9546C17.9515 18.7806 12.9649 18.3119 11.7527 19.2968C9.89689 20.8046 9.59344 23.8382 11.9804 25.0317C14.0843 26.0836 16.822 25.2033 17.4877 22.826C18.0039 20.9822 13.3668 19.4611 12.45 21.04C10.8725 23.7569 16.4654 23.9845 17.7581 22.9114C19.0635 21.8276 14.6821 19.7894 14.2289 21.6021" stroke="white" stroke-width="1.81007" stroke-linecap="round"/>
<path d="M16.9782 21.9123C16.9782 16.1522 15.6616 10.4857 15.5161 4.71589C15.4929 3.79448 15.5408 2.91403 16.1973 2.20704C16.61 1.76257 16.8642 2.13395 17.4185 2.3898C19.8426 3.50861 22.4452 4.35024 24.7955 5.61309C26.0662 6.29587 26.5977 6.98857 26.2992 8.45424C26.0429 9.71204 25.155 10.9522 24.0811 11.6443C23.3949 12.0865 22.606 12.1451 21.9128 12.4917" stroke="white" stroke-width="2.22549" stroke-linecap="round"/>
<path d="M2 10.5352C4.68261 10.5352 7.36661 10.6738 10.0428 10.6738" stroke="white" stroke-width="2.22549" stroke-linecap="round"/>
<path d="M5.94338 6.51367C5.94338 8.32012 5.91773 10.1194 6.05124 11.9218C6.10249 12.6136 6.05308 13.5279 6.35939 14.1405" stroke="white" stroke-width="2.22549" stroke-linecap="round"/>
</svg>
