<svg width="106" height="77" viewBox="0 0 106 77" fill="none" xmlns="http://www.w3.org/2000/svg">
<path d="M95.8206 20.0984C94.4404 18.8168 94.3911 17.9788 94.884 16.3522C96.067 12.606 96.1656 8.85985 95.229 5.26155C94.3418 1.81112 91.2857 -0.308414 87.7367 0.0366282C84.1877 0.332379 81.3288 2.10688 79.012 3.73351C78.7656 3.93068 78.4698 4.07854 78.2234 4.27571C76.4489 5.50801 74.6251 6.78961 73.5407 8.90915C73.1956 9.59924 72.8506 10.4372 73.1463 11.2752C73.4421 12.0638 74.2308 12.5075 74.8716 12.7539C78.8149 14.3312 82.9554 16.0565 86.7016 18.6196C91.0886 21.6264 94.194 24.5347 96.5107 27.8372C100.06 32.9143 101.489 37.8927 100.947 43.1177C100.158 50.2157 96.4614 56.1307 89.5605 61.3063C89.5605 61.3063 89.5112 61.3556 89.4619 61.3556L89.314 61.3063C88.5254 61.0106 87.7367 60.7148 87.1452 60.2712C86.8494 60.0248 85.8636 59.2854 85.6172 58.5953C85.1735 57.363 84.8285 56.0321 84.4835 54.7998C84.237 53.814 83.9905 52.8281 83.6455 51.8423C83.5469 51.4973 83.4483 51.1029 83.3004 50.7086C82.9061 49.2791 82.5118 47.7511 81.4766 46.716C80.6387 45.878 79.9486 45.533 79.3571 45.2372C78.4698 44.8429 77.6812 44.4485 76.3503 41.9839L76.2517 41.8361C75.7095 41.146 74.4772 40.5052 73.3435 41.146C72.1605 41.8361 72.0619 43.4134 72.5055 44.1528L72.5548 44.2021C73.6885 46.3709 74.3293 47.7018 76.9418 48.8355C77.484 49.082 78.0262 49.5749 78.1741 49.9692C79.1599 52.8774 80.0965 55.9335 80.9344 59.1375C81.6245 61.75 82.9061 63.4259 84.9764 64.3624H84.9271C83.054 65.2497 81.3288 66.0876 79.5543 66.9256C79.3571 66.6299 79.2092 66.3341 79.012 66.0384C78.322 64.9046 77.6319 63.8202 77.2376 62.6865C76.7939 61.4049 76.5475 60.0741 76.2517 58.6446C76.1038 57.9545 75.956 57.2151 75.8081 56.525C75.2166 53.9619 73.6885 51.8423 70.9775 49.9199C69.548 48.8848 68.8579 47.406 68.9072 45.7301C68.9565 44.9907 68.7101 44.35 68.2172 43.9063C70.7803 43.1177 72.8999 40.7517 72.9492 37.6956C72.9985 34.2944 70.0409 30.7454 65.8018 30.6961C61.8092 30.6961 59.0489 33.2593 58.8517 36.8083C58.6545 40.6038 61.5135 43.512 64.8653 44.0049C64.7174 44.2021 64.5695 44.35 64.471 44.4978C64.4217 44.5964 64.3231 44.695 64.2738 44.7443C64.2245 44.7443 64.2245 44.7443 64.1752 44.695C59.9361 43.3641 55.697 42.8712 51.2608 43.167C48.9933 43.3148 46.8245 43.7585 44.6556 44.2021C43.5712 44.4485 42.4375 44.6457 41.3038 44.8429C41.2545 44.7936 41.2052 44.7443 41.1559 44.7443C41.0081 44.6457 40.8602 44.4978 40.663 44.3993C40.3673 44.2021 40.1208 44.0049 39.7758 43.857C42.3882 43.1177 44.5078 40.7024 44.6064 37.6463C44.6557 34.2451 41.6982 30.6961 37.4591 30.6468C33.4664 30.6468 30.7061 33.21 30.5089 36.759C30.3118 40.8995 33.6636 43.9556 37.3112 44.0542C37.0647 44.3007 36.8676 44.5964 36.6704 44.9415C36.5718 45.1879 36.4239 45.4344 36.3253 45.6808C35.7831 46.8145 35.1423 48.0468 34.5015 48.9341C32.5792 51.5466 31.5933 54.159 31.4454 56.8701C31.2483 60.6656 29.6217 63.8695 27.7486 66.7777C25.7276 65.7426 23.6081 64.7075 21.3406 63.5245C21.4885 63.3766 21.6364 63.278 21.735 63.1301C22.6715 62.2922 23.4602 61.5035 24.2981 60.8134C27.3049 58.2995 28.4879 55.4899 27.995 52.1874C27.65 50.0678 28.488 48.3426 30.5089 47.0117C32.4806 45.6808 31.8398 44.2514 31.4948 43.6599C31.0018 42.9205 30.361 42.674 29.9174 42.5755C29.2273 42.4769 28.4879 42.674 27.8472 43.167C27.1571 43.7092 26.2205 44.4486 25.5304 45.3851C24.101 47.3075 22.7701 49.6735 23.4109 52.5324C23.7559 53.9619 23.4602 55.0463 22.5236 56.0814C22.1293 56.4757 21.6364 56.8701 21.1435 57.2644C20.6999 57.6095 20.2069 58.0038 19.7633 58.3981C19.0239 59.0882 18.3831 59.8276 17.6931 60.567C17.5945 60.6656 17.4959 60.7641 17.3973 60.8627C17.2001 60.7148 17.0029 60.5177 16.8058 60.3698C15.8199 59.5811 14.9327 58.7925 14.0454 58.0038C9.65847 54.0112 6.94741 49.6735 5.71512 44.695C4.18707 38.4349 5.3701 32.4706 9.31344 26.8514C13.1089 21.4786 18.4324 17.3873 26.1219 13.9369C27.1571 13.4933 28.2415 13.0989 29.3259 12.7046C29.7202 12.5567 30.1639 12.4089 30.5582 12.261C31.9384 11.7681 32.4806 10.5851 32.037 9.15561C31.8398 8.56411 31.4948 8.12048 31.0018 7.87402C30.3118 7.57827 29.5724 7.77543 29.1287 7.9726C29.0301 8.02189 28.8823 8.07119 28.7344 8.12048C28.5372 8.16977 28.3401 8.21906 28.1429 8.26835C27.8964 8.36693 27.7979 8.41623 27.3542 8.07119C25.5797 6.69102 23.2137 4.91651 20.6998 3.33917C18.4817 1.959 16.165 1.31821 13.9469 1.46609C11.0879 1.66325 7.53893 3.24059 6.99672 9.54994C6.70097 13.3947 7.58822 17.0423 8.37689 20.2956C8.42618 20.4434 8.32759 20.7392 8.2783 20.8378C5.37008 24.0417 3.20125 27.6893 1.82108 31.7806C0.14516 36.759 0.0465645 41.8854 1.6239 46.9624C4.33495 55.6378 10.3979 62.5386 20.1576 68.0593C26.0727 71.4112 32.8749 73.7772 40.4658 75.108C45.2964 75.946 49.782 76.3403 54.169 76.3403C55.7956 76.3403 57.3729 76.2911 58.9503 76.1925C68.365 75.5024 76.4489 73.4814 83.6455 69.9817C92.1237 65.8905 97.8908 60.8627 101.785 54.2083C104.2 50.0678 105.432 45.878 105.482 41.491C105.778 33.6536 102.475 26.3584 95.8206 20.0984ZM90.497 15.3664C86.7016 13.3454 83.0047 11.3737 79.1599 9.35278C81.5752 7.33181 84.1384 5.36014 87.3424 4.71935C88.4761 4.52218 89.3633 4.57148 89.9056 4.96581C90.3985 5.31085 90.7435 5.95164 90.9407 6.88819C91.4336 9.54994 91.2857 12.3596 90.497 15.3664ZM68.4143 53.5675C70.4353 54.997 71.569 56.9687 72.0619 60.0248C72.6041 63.3766 73.3928 66.1862 75.2659 68.7001C60.7741 73.0871 46.7259 73.0378 32.3327 68.503C32.4313 68.2565 32.5299 68.1086 32.6777 67.9114C34.7973 65.1018 35.931 61.6514 36.276 57.1165C36.4732 54.1097 38.297 51.8916 40.1701 49.5256L40.2194 49.427C40.7123 48.7862 42.1418 48.4905 43.3248 48.244C43.522 48.1947 43.7191 48.1454 43.9163 48.0961C48.5497 47.061 52.2959 46.716 55.697 47.061C57.7673 47.2582 59.8375 47.7018 61.8585 48.0961C62.6472 48.244 63.4359 48.4412 64.2738 48.5891C64.6682 48.6384 64.816 48.8355 65.2597 49.5749C65.9004 50.9058 66.9848 52.5324 68.4143 53.5675ZM12.2216 8.07119C12.5667 6.7896 12.961 6.1981 14.1933 6.1981C14.5876 6.1981 15.0313 6.24739 15.6228 6.34597C18.531 6.93748 20.8477 8.6134 23.0658 10.3879L12.4681 16.9437C12.2709 16.0565 12.0738 15.1692 12.0245 14.3313L11.9752 13.7397C11.8766 11.8174 11.778 9.7964 12.2216 8.07119ZM65.3089 33.1607C68.0693 32.4213 70.9282 35.9211 70.2381 37.7449C68.6115 38.4349 64.9146 35.6746 65.3089 33.1607ZM61.5628 37.1534C64.3724 36.7097 66.6891 39.7165 66.3934 41.6389C64.2245 42.2797 61.1684 39.4701 61.5628 37.1534ZM36.9169 33.1607C39.6772 32.4213 42.5361 35.9211 41.846 37.7449C40.2194 38.4349 36.5225 35.6746 36.9169 33.1607ZM33.1707 37.1534C35.9803 36.7097 38.297 39.7165 38.0013 41.6389C35.8324 42.2797 32.8256 39.4701 33.1707 37.1534Z" fill="#D9D9D9"/>
<path d="M44.0668 49.9199C44.0175 49.9199 44.0175 49.9199 44.0668 49.9199C43.1796 49.9199 42.3909 50.2157 41.8487 50.7579C41.3065 51.3001 41.0107 52.0888 41.0107 52.976C41.0107 54.159 41.5529 55.3913 42.4402 56.2786C43.1303 56.9194 43.919 57.2644 44.7076 57.2644H44.7569C47.0243 57.2151 48.5031 55.8349 48.5524 53.7647C48.5524 52.7296 48.2566 51.793 47.6158 51.1522C46.7779 50.3635 45.5949 49.9199 44.0668 49.9199ZM45.2991 53.6168C45.2991 53.7647 45.2991 54.1097 44.7076 54.1097C44.6583 54.1097 44.5105 54.0604 44.4612 53.9619C44.3133 53.814 44.2147 53.5675 44.2147 53.3703C44.2147 53.3211 44.2147 53.1732 44.3133 53.1239C44.3626 53.0746 44.4612 53.0253 44.5598 53.0253C44.8555 53.0253 45.102 53.0746 45.2005 53.2225C45.2005 53.2718 45.2991 53.3703 45.2991 53.6168Z" fill="#D9D9D9"/>
<path d="M61.1189 49.9688C61.0696 49.9688 61.0696 49.9688 61.1189 49.9688C59.5908 49.9688 58.3586 50.4124 57.6192 51.201C56.9784 51.8418 56.6826 52.7291 56.6826 53.8135C56.7319 55.9331 58.1614 57.2639 60.4781 57.3132H60.5274C61.316 57.3132 62.1047 56.9682 62.7948 56.3274C63.6821 55.4894 64.2243 54.2571 64.2243 53.0248C64.2243 52.1376 63.9285 51.3982 63.3863 50.8067C62.7455 50.3138 61.9568 49.9688 61.1189 49.9688ZM60.971 53.4685C60.971 53.6656 60.8724 53.9121 60.7246 54.06C60.626 54.1585 60.5274 54.2078 60.4781 54.2078C59.9852 54.2078 59.8866 53.9121 59.8866 53.7149C59.8866 53.5671 59.9359 53.4192 59.9852 53.3206C60.0838 53.222 60.3302 53.1234 60.626 53.1234C60.8231 53.1234 60.971 53.222 60.971 53.4685Z" fill="#D9D9D9"/>
<path d="M30.3592 21.873V21.9223C30.6057 23.8447 30.9014 24.4855 31.1479 25.0277L31.2465 25.2742C31.5915 26.0135 32.3802 26.5557 33.1689 26.7036C33.2674 26.7036 33.4153 26.7529 33.5139 26.7529C34.0068 26.7529 34.4997 26.5557 34.8448 26.2107C35.5349 25.5206 35.2884 24.4855 35.0912 23.7461L35.0419 23.4996C34.8448 22.6617 34.7462 22.3659 34.7955 20.8379C35.0912 18.0283 35.8799 14.8736 36.7179 13.1484L36.8165 12.9019C37.5065 11.3246 37.8023 10.8317 38.7388 10.5852C42.7808 9.84582 45.3439 9.50078 48.8436 9.3529C51.8997 9.20503 53.97 9.25432 57.174 9.3529C61.1666 9.79653 65.455 10.3387 69.6941 11.571C70.7292 11.8175 71.9122 11.0288 72.208 10.3387V10.2894C72.6516 9.15573 71.9615 8.46564 71.7151 8.21918C71.2714 7.77556 70.3842 7.38123 69.2997 7.18407C64.4691 5.95177 60.723 5.45885 56.2374 5.11381C52.9349 4.86735 49.4845 5.11381 46.5762 5.36026C43.5694 5.60672 40.7598 6.00106 37.6544 6.64185C35.5842 7.03619 34.0068 8.12061 33.2674 9.64866C31.6408 13.247 30.0635 16.9931 30.3592 21.873Z" fill="#D9D9D9"/>
<path d="M52.7383 14.2329C53.0833 13.3457 53.9213 11.2261 52.4918 10.2403C51.9003 9.84597 51.4074 9.79668 51.0624 9.89527C50.2244 10.0431 49.6822 10.7332 49.2386 11.4233C48.6964 12.212 48.302 13.2471 47.957 14.2822C46.6261 17.9791 45.9853 22.2675 46.1332 26.5559V26.6052C46.1825 27.6896 46.1825 28.3304 46.1825 28.8233C46.1825 29.7599 46.1825 30.3514 46.5768 32.3723C46.8233 33.5553 47.119 34.4426 47.8091 35.4777C48.2527 36.1185 49.0414 36.6114 49.8301 36.6114C50.1751 36.6114 50.5202 36.5128 50.8159 36.365C51.8017 35.8227 52.2454 34.5412 51.8017 33.5553C51.2595 32.323 51.161 31.6822 50.9145 29.6613C50.4216 25.3236 50.5202 22.6618 51.2103 19.5564C51.6539 17.3383 51.9496 16.2046 52.7383 14.2329Z" fill="#D9D9D9"/>
<path d="M63.6822 11.472C63.0414 10.7326 62.1542 10.4862 61.2176 10.8312C59.9853 11.2749 59.5417 12.7043 59.4431 13.1479C58.9995 14.8239 58.753 16.3519 58.6544 17.5842C58.5066 19.753 58.6051 21.429 58.9502 23.4006L59.4431 25.2244C59.6896 26.1117 61.0204 29.5621 62.4006 30.3508C62.6964 30.4987 63.0907 30.5973 63.5343 30.5973C64.1258 30.5973 64.7666 30.4001 65.1117 30.0057C65.5553 29.4635 65.9496 28.3298 65.506 27.4426C65.3088 26.9989 65.0624 26.506 64.8159 26.0624C64.5695 25.5202 64.2737 25.0273 64.1258 24.6329C63.5836 23.4006 63.2386 21.9219 63.0907 20.246C62.8935 18.0278 63.2879 16.4505 63.9779 13.7887C63.9779 13.6409 64.323 12.2114 63.6822 11.472Z" fill="#D9D9D9"/>
</svg>
