<svg width="21" height="16" viewBox="0 0 21 16" fill="none" xmlns="http://www.w3.org/2000/svg">
<path d="M8.34187 6.10576C7.40548 3.57751 5.10453 4.27091 2.83735 4.27091C2.40413 4.27091 1.47961 4.0544 1.41025 4.67866C1.31961 5.49439 1.01449 6.26228 1.00251 7.12511C0.974645 9.13136 1.15763 10.3383 2.63348 11.8141C3.78209 12.9628 5.17095 13.7608 6.50703 14.6683C6.96747 14.9811 7.42288 15.535 7.95678 15.2347C11.2025 13.4089 14.6597 11.8513 17.6293 9.57157C18.5928 8.83194 19.1718 8.38465 19.5548 7.28368C19.9157 6.24614 19.7587 5.03933 19.7587 3.95378C19.7587 3.23743 20.0348 1.82392 19.5095 1.25815C18.9184 0.621621 17.6836 0.775703 16.9045 0.805106C15.6053 0.85413 14.6483 1.99688 13.8464 2.88912C12.7642 4.09322 11.6408 5.19848 10.4712 6.30963C10.1896 6.57713 10.184 6.85369 9.97284 7.17042C9.68691 7.59931 9.15836 7.93858 8.95348 8.34834" stroke="black" stroke-width="1.20834" stroke-linecap="round"/>
</svg>
