<svg width="106" height="105" viewBox="0 0 106 105" fill="none" xmlns="http://www.w3.org/2000/svg">
<g id="&#236;&#139;&#160;&#235;&#130;&#168;" clip-path="url(#clip0_2800_9290)">
<g id="&#236;&#178;&#180;&#235;&#166;&#172;_&#236;&#139;&#160;&#235;&#130;&#168;">
<path id="Vector" d="M100.373 43.3851C96.9719 38.4073 92.142 34.1688 85.5871 30.4724C84.9464 30.1274 84.8478 29.8317 84.7985 29.191C84.5028 24.0161 83.2707 19.4819 81.0036 15.3913C80.0672 13.6663 78.6379 12.6313 77.0115 12.3356C75.4344 12.0892 73.808 12.6313 72.428 13.9127C70.4073 15.7363 68.4852 17.7076 66.5631 19.5312C65.5774 20.5169 64.5917 21.5026 63.5567 22.4883C63.4089 22.5869 63.2117 22.8333 63.0639 22.8826C62.4725 22.9319 61.8318 22.8826 61.1911 22.8333C60.8461 22.8333 60.5011 22.784 60.1561 22.784C58.924 22.7347 57.6918 22.7347 56.509 22.6854C53.3055 22.5869 50.0034 22.4883 46.7506 22.5376C44.7299 22.5376 43.3992 22.2911 42.1178 20.8619C39.8507 18.2991 37.3865 16.032 34.6265 13.4692C33.3944 12.3849 31.9159 11.8428 30.3387 12.0399C28.7616 12.237 27.3324 13.1242 26.4452 14.5534C26.0509 15.0956 25.7552 15.7363 25.4103 16.4755C23.636 20.4676 22.601 24.509 22.3546 28.4025C21.6646 28.846 20.9746 29.2403 20.2846 29.6346C18.4611 30.7189 16.7361 31.7538 15.0111 32.9367C7.12555 38.4566 2.49278 45.0608 0.915663 53.1435C0.127105 57.1848 0.472111 61.3741 1.85209 65.6126C3.57706 70.886 6.73127 75.4695 11.4133 79.6587C15.849 83.6508 21.1717 86.8051 27.6773 89.3679C34.8729 92.1771 42.6107 93.7542 51.3341 94.1978C52.3691 94.2471 53.4041 94.2471 54.439 94.2471C60.0082 94.2471 65.6267 93.5571 71.1959 92.2264C80.4614 90.0086 87.9035 86.4108 93.9655 81.2852C98.9926 77.0467 102.295 72.4139 104.069 67.0911C106.829 59.0577 105.597 51.0242 100.373 43.3851ZM98.3026 68.5696L98.204 68.5204C94.4091 66.6475 90.3677 65.2676 86.1785 64.3312C86.0306 64.2819 85.8828 64.2819 85.6857 64.2326C84.9464 64.0354 84.2071 63.8876 83.4186 63.9369C82.9257 63.9862 81.3486 64.0355 80.9543 65.514V65.6126C80.7079 66.894 81.8907 67.929 82.7778 68.2247C83.8128 68.5697 84.8971 68.8161 85.9321 69.0132C87.0656 69.2596 88.1992 69.5554 89.2834 69.9003C91.107 70.4918 92.8813 71.1818 94.7541 71.9703C95.2469 72.1675 95.6905 72.3646 96.1833 72.5124C94.5569 74.9274 92.5362 76.7017 90.762 78.1309C84.5521 83.158 77.0608 86.5094 67.8445 88.3822C62.1275 89.565 56.1147 89.9593 50.0034 89.6636C41.7728 89.22 34.0844 87.4458 27.0859 84.3901C20.3339 81.433 15.159 77.7366 11.2655 73.1039C11.1669 72.956 11.0191 72.8082 10.9205 72.6603C14.9126 70.9353 18.6089 69.5061 22.5517 68.8654C22.6503 68.8654 22.6996 68.8654 22.7489 68.8654C23.981 68.6189 24.8681 68.1754 25.3117 67.4854C25.6074 66.9926 25.706 66.4504 25.5581 65.9083V65.8097C25.1638 64.6269 23.981 64.1833 22.0096 64.479C19.7425 64.824 12.7933 66.7954 8.3084 68.9146C6.43557 65.9576 5.64702 62.6555 5.20345 60.0927C5.15417 59.9448 5.20345 59.8462 5.20345 59.8462C5.20345 59.8462 5.30202 59.7477 5.59773 59.6491C9.98408 58.072 14.2226 57.9734 18.7075 57.9241C19.2003 57.9241 19.7425 57.9241 20.2846 57.8749C20.8267 57.8749 21.5167 57.9241 22.256 58.0227C22.946 58.1213 23.6853 58.1706 24.2767 58.1706C26.1495 58.1706 26.5931 57.2341 26.741 56.6427C26.8395 56.1006 26.8888 54.7206 24.7696 54.0306H24.7203C22.9953 53.6363 21.911 53.4392 20.2353 53.3899C17.229 53.3406 14.2719 53.4885 11.4626 53.7842C9.78695 53.9813 8.06198 54.3263 6.43558 54.622C6.09058 54.6713 5.79487 54.7699 5.44988 54.8192C5.74559 52.4042 6.53413 49.9892 7.86482 47.6236C11.1176 41.6108 16.4404 36.8302 24.1288 33.0845C26.1002 32.1481 26.9874 30.8667 27.1352 28.7475C27.4309 25.1497 28.2688 21.6997 29.7473 18.4469C29.8952 18.1512 30.043 17.8555 30.1909 17.6091C30.6837 16.7713 30.9794 16.722 31.0287 16.6727C31.078 16.6727 31.3244 16.6727 31.9651 17.2641C33.6408 18.8412 35.2672 20.5169 36.8936 22.094C38.175 23.3754 39.4565 24.6568 40.7871 25.9382C41.1321 26.2832 42.1178 27.1211 43.2021 27.1211C45.8142 27.1704 48.4756 27.1703 51.0384 27.1703C53.0591 27.1703 55.1783 27.1704 57.2483 27.2196C58.0368 27.2196 58.7761 27.2689 59.6139 27.3675C60.7968 27.4661 61.9796 27.5646 63.2118 27.4661C64.3946 27.4168 65.7253 26.7761 66.6617 25.8889C68.2388 24.4104 69.7666 22.8826 71.2945 21.404C72.5759 20.1226 73.9559 18.7919 75.2866 17.5105C75.878 16.9684 76.223 16.8205 76.4201 16.8205C76.4694 16.8205 76.8144 16.9191 77.3072 17.9048C78.6872 20.5169 79.5743 23.4247 80.0179 26.8254C80.1165 27.4661 80.1657 28.1068 80.2643 28.7475C80.3629 29.6346 80.4615 30.5217 80.6093 31.4581C80.7079 32.2467 81.0036 33.1338 82.2357 33.7745C89.6777 37.7666 94.4584 41.9558 97.6126 47.3771C98.7462 49.2993 99.929 51.5664 100.471 54.1785C99.4854 53.9321 98.4997 53.7349 97.4648 53.6363C94.6555 53.3899 91.6984 53.1435 88.3471 52.9956C86.7699 52.9464 85.6364 52.9956 84.0593 53.1435C83.4186 53.1928 82.2357 53.3899 81.3486 53.9321C80.7572 54.3263 79.9193 55.2627 80.215 56.2977C80.56 57.5791 82.1864 57.8748 82.975 57.727C86.7699 57.037 90.2199 57.382 93.9162 57.7763C94.6062 57.8256 95.2962 57.9241 95.9862 57.9734C97.2676 58.072 98.4997 58.417 99.8797 58.762C100.274 58.8605 100.619 58.9591 101.013 59.0577C101.013 62.2612 100.274 65.2676 98.6969 68.5696C98.4505 68.6189 98.3519 68.6189 98.3026 68.5696Z" fill="#D9D9D9"/>
<path id="Vector_2" d="M56.0653 64.6269C54.2418 65.3661 52.2704 65.514 49.9047 65.1197C47.6869 64.7254 46.2576 65.6619 45.5184 67.9783C44.4834 71.2311 46.2083 73.5475 47.6376 75.026C49.5104 76.9481 51.9747 77.9338 55.1782 77.9831H55.2275C57.1496 77.9831 59.8603 77.6381 61.3881 74.9274C63.0638 71.9211 63.0145 69.1118 61.2895 66.549C59.9095 64.5283 58.0367 63.8383 56.0653 64.6269ZM49.9047 69.5061C51.8761 69.9989 53.6997 69.999 55.3753 69.4568C55.7203 69.3582 56.0161 69.2597 56.3118 69.1118C57.1989 68.7175 57.4946 68.8161 57.5439 68.8654C57.6425 68.9147 57.9382 69.2597 58.1846 70.7382C58.1846 71.5268 58.0367 72.5125 57.3467 73.0546C57.1496 73.2025 56.9032 73.3503 56.6567 73.4489C56.3117 73.5475 55.8682 73.5967 55.3753 73.5475C55.2768 73.5475 55.1289 73.5474 54.9811 73.4982C53.4039 73.301 52.0732 72.9067 50.989 72.3646C49.8554 71.8225 49.609 70.3439 49.5104 69.7032C49.5104 69.5554 49.5104 69.4568 49.5104 69.3582C49.6583 69.4568 49.7569 69.4568 49.9047 69.5061Z" fill="#D9D9D9"/>
<path id="Vector_3" d="M52.4188 64.1343C52.5174 64.1343 52.616 64.1343 52.6653 64.1343C53.7002 64.1343 54.7352 63.6907 55.6224 62.8529C56.8052 61.7193 57.4459 59.9944 57.3966 58.4173C57.3966 56.643 56.8545 55.1645 55.8688 54.228C55.0802 53.4888 54.0452 53.0945 52.8624 53.1438C49.4618 53.2916 47.7861 55.1645 47.7368 58.8608C47.6382 62.1136 49.2153 63.8879 52.4188 64.1343Z" fill="#D9D9D9"/>
<path id="Vector_4" d="M45.6669 53.1931C45.519 51.9117 45.0262 50.6303 44.2376 49.6446C42.7591 47.7225 40.492 46.6875 37.387 46.4904C34.5778 46.3425 31.7193 47.8703 30.8814 49.9403C30.6843 50.4331 30.0929 51.961 31.7193 52.8974C33.1978 53.7352 34.1342 52.6017 34.5285 52.1088C35.5142 50.926 36.7956 50.581 38.5699 51.0738C40.492 51.616 41.3791 52.4538 41.4777 53.8338C41.5269 54.5731 41.872 55.2138 42.4141 55.5588C42.7098 55.7559 43.0548 55.8545 43.3998 55.8545C43.6462 55.8545 43.8926 55.8052 44.1391 55.7066C45.0262 55.3616 45.7654 54.1788 45.6669 53.1931Z" fill="#D9D9D9"/>
<path id="Vector_5" d="M67.7968 46.5396H67.6982C66.3183 46.5396 65.0369 46.786 63.9526 47.2295C60.9462 48.4124 59.3198 50.2852 59.2212 52.7494C59.172 53.6366 59.8619 54.7701 60.6998 55.1644C60.9955 55.3123 61.2912 55.3615 61.5376 55.3615C61.7841 55.3615 61.9812 55.3122 62.1291 55.263C62.8683 54.9672 63.2133 54.228 63.4598 53.6366C63.509 53.4887 63.5583 53.3408 63.6076 53.1437C63.7062 52.7987 63.9033 52.3059 64.0511 52.158C65.2833 51.1723 66.9097 50.778 68.4375 51.123C69.4232 51.3695 70.2118 51.9116 70.5568 52.6509C70.951 53.4887 72.331 53.883 73.0703 53.5873C73.8589 53.2916 74.4996 52.2073 74.4503 51.4187C74.401 50.6795 74.0067 49.8416 73.4646 49.2009C72.0846 47.6238 70.1625 46.6874 67.7968 46.5396Z" fill="#D9D9D9"/>
</g>
</g>
<defs>
<clipPath id="clip0_2800_9290">
<rect width="105" height="105" fill="white" transform="translate(0.5)"/>
</clipPath>
</defs>
</svg>
