<svg xmlns="http://www.w3.org/2000/svg" width="40" height="40" viewBox="0 0 40 40" fill="none">
  <circle cx="20" cy="20" r="20" fill="#FF005C"/>
  <path d="M19.6541 15.17L13.8707 20.9535C13.7178 21.1063 13.5394 21.1828 13.3356 21.1828C13.1318 21.1828 12.9535 21.1063 12.8006 20.9535C12.6477 20.8006 12.5713 20.6222 12.5713 20.4184C12.5713 20.2146 12.6477 20.0363 12.8006 19.8834L19.8834 12.8006C19.9683 12.7157 20.0532 12.6562 20.1382 12.6222C20.2231 12.5883 20.3165 12.5713 20.4184 12.5713C20.5203 12.5713 20.6138 12.5883 20.6987 12.6222C20.7836 12.6562 20.8685 12.7157 20.9535 12.8006L28.0363 19.8834C28.1891 20.0363 28.2656 20.2146 28.2656 20.4184C28.2656 20.6222 28.1891 20.8006 28.0363 20.9535C27.8834 21.1063 27.705 21.1828 27.5012 21.1828C27.2974 21.1828 27.1191 21.1063 26.9662 20.9535L21.1828 15.17V27.807C21.1828 28.0278 21.1106 28.2104 20.9662 28.3547C20.8218 28.4991 20.6392 28.5713 20.4184 28.5713C20.1976 28.5713 20.015 28.4991 19.8707 28.3547C19.7263 28.2104 19.6541 28.0278 19.6541 27.807V15.17Z" fill="white"/>
</svg>