<svg width="100%" height="100%" viewBox="0 0 105 107" fill="none" xmlns="http://www.w3.org/2000/svg">
<path d="M47.9981 104C43.8508 104 43.5721 103.867 39.4281 103.695C33.3364 103.442 27.0028 103.384 21.0713 101.85C16.7867 100.743 11.9082 98.6155 8.93042 95.2157C5.07375 90.8125 2.16557 82.9787 3.21706 77.0632C4.38122 70.5139 9.14374 66.0022 14.346 62.9208C18.7922 60.2872 25.8057 57 31.1887 57C35.2533 57 39.3179 57 43.3825 57C47.2581 57 50.8156 58.4071 54.3728 59.7866C57.8048 61.1175 60.8579 63.0066 63.2337 65.8374C66.5996 69.8477 69 74.9832 69 80.3142C69 84.982 67.9156 90.3499 65.0588 94.1542C62.1742 97.9956 59.943 100.585 55.5972 102.362C53.9068 103.053 49.7735 104 47.9981 104ZM47.9981 104C46.4926 104 44.9904 103.899 43.4645 103.899" stroke="#262121" stroke-width="4.54" stroke-linecap="round"/>
<path d="M40.094 84.2242C38.0063 84.4562 33.7674 85.4693 33.6895 82.5074C33.5949 78.9153 37.661 77.9517 40.9661 77.4795C41.5857 77.391 43.3151 77.3967 43.8275 78.0798C44.3407 78.7641 44.5088 78.955 44.5088 79.755C44.5088 80.5626 44.4141 80.8852 43.8275 81.4718C42.7282 82.5711 40.3523 83.554 38.8677 83.8427C36.6545 84.2731 34.3793 84.2242 32.1366 84.2242C30.4475 84.2242 29.793 83.499 29.793 81.7989C29.793 79.9173 32.9426 78.1551 34.3576 77.3569C37.6279 75.5121 40.8938 75.3948 44.5905 75.3948C45.9804 75.3948 47.6347 75.7745 47.6895 77.5798C47.7587 79.8655 47.647 80.7586 46.0621 82.5074C42.9545 85.9365 36.1366 86.0798 32.1366 85.0798" stroke="#262121" stroke-width="4.54" stroke-linecap="round"/>
<path d="M38.9271 84.3627C36.7124 84.6349 32.216 85.824 32.1333 82.3477C32.033 78.1318 36.3461 77.0009 39.8521 76.4467C40.5093 76.3429 42.3439 76.3495 42.8874 77.1513C43.4318 77.9544 43.6101 78.1785 43.6101 79.1174C43.6101 80.0652 43.5097 80.4438 42.8874 81.1323C41.7214 82.4224 39.2011 83.5761 37.6262 83.9149C35.2785 84.42 32.8651 84.3627 30.4861 84.3627C28.6943 84.3627 28 83.5114 28 81.5161C28 79.3078 31.3411 77.2396 32.842 76.3028C36.311 74.1377 39.7754 74 43.6968 74C45.1712 74 46.9261 74.4457 46.9841 76.5645C47.0576 79.2471 46.939 80.2952 45.2578 82.3477C41.9613 86.3722 34.7291 86.5404 30.4861 85.3668" stroke="#262121" stroke-width="4.54" stroke-linecap="round"/>
<path d="M81.3386 92.06C80.2891 91.8136 75.8114 90.0146 77.9526 88.7176C79.1142 88.0139 83.3103 89.5237 83.351 90.881C83.3657 91.3731 83.1689 91.9636 82.5915 91.8504C80.221 91.3856 82.3308 89.6783 83.2127 88.6091C85.5505 85.7747 87.248 82.4861 89.5487 79.6277C90.8073 78.0641 92.0719 76.6159 93.3775 75.1243C93.5642 74.911 93.7519 74.638 93.5695 75.1414C93.1932 76.1795 93.1242 77.0977 93.286 78.196C93.4465 79.2852 93.5776 80.4692 94.4631 81.2297C96.3092 82.815 98.9 83.4528 99.3525 86.1569C99.5115 87.1068 99.1863 87.9311 98.6023 88.696C98.0512 89.4178 97.0365 89.6513 96.6033 90.3541" stroke="#262121" stroke-width="4.54" stroke-linecap="round"/>
<path d="M12.6005 33.5711C12.139 33.1096 11.4829 32.2349 11.2483 31.6635C10.4867 29.8083 9.2604 27.9088 8.35114 26.1178C7.08642 23.6267 5.78245 21.1759 4.65856 18.6101C3.47343 15.9044 1.86062 12.0284 4.18166 9.52169C5.87252 7.69556 8.1697 6.58862 10.395 5.5566C12.4354 4.61031 13.799 3.9214 16.0469 3.55884C16.8878 3.4232 18.6031 2.81005 19.4152 3.05884C21.0469 3.55866 21.7273 4.48397 22.0469 5.05866C23.2709 7.25989 22.994 6.736 23.6392 8.09099C23.9946 8.83736 24.2382 9.8045 24.5469 10.5589C24.9418 11.5244 25.3152 12.2308 25.7103 13.2006C27.0464 16.4801 28.9255 19.3712 29.8798 22.7795C30.4914 24.9638 30.7149 27.0733 29.5469 29.0589C29.0799 29.8527 28.3125 31.0878 27.5469 31.5589C26.8952 31.96 25.9652 32.5154 25.2542 32.7399C24.5433 32.9644 23.6995 33.2197 23.0469 33.5711C22.4161 33.9107 21.267 34.3789 20.5469 34.5589C19.6368 34.7865 18.2472 34.9337 17.3169 34.9337C14.9088 34.9337 13.655 34.667 12.0469 33.0589" stroke="#262121" stroke-width="4.54" stroke-linecap="round"/>
<path d="M6.4707 19.7274C8.36826 19.6861 10.4471 19.5787 12.1118 18.7463" stroke="#262121" stroke-width="4.54" stroke-linecap="round"/>
<path d="M10.6406 26.8399C12.0597 26.7639 13.2644 26.4007 14.5648 25.8589" stroke="#262121" stroke-width="4.54" stroke-linecap="round"/>
<path d="M24.8656 12.124C23.7139 13.2758 22.392 14.3419 20.9414 15.0672" stroke="#262121" stroke-width="4.54" stroke-linecap="round"/>
<path d="M27.0469 19.0588C26.0469 20.5588 24.2654 21.7769 23.1484 22.6704" stroke="#262121" stroke-width="4.54" stroke-linecap="round"/>
<path d="M4.54688 33.8611C5.41016 35.059 5.49207 35.7064 5.90945 36.559C6.54688 37.8611 7.05011 38.9918 7.54688 39.8611C7.7808 40.2705 9.89086 42.445 10.4038 42.559C11.5947 42.8236 13.1864 43.5312 14.4102 43.559C19.5755 43.6764 23.1221 41.2037 27.8749 39.3674C30.0845 38.5137 32.6473 37.66 34.5515 36.179C36.2248 34.8776 37.2142 34.3208 37.9102 32.0588C38.508 30.116 38.4102 28.6433 38.4102 26.5588C38.4102 25.375 38.0913 24.4627 37.9333 23.3568C37.8556 22.8131 37.3817 21.4683 36.9102 20.5588" stroke="#262121" stroke-width="4.54" stroke-linecap="round"/>
<path d="M26.4102 41.5588C26.4116 43.2979 27.0647 45.3396 27.69 47.2156" stroke="#262121" stroke-width="4.54" stroke-linecap="round"/>
<path d="M20.4102 49.5588C23.7152 49.2944 26.6201 48.543 29.5469 47.0588C31.263 46.1886 33.8255 44.8265 35.4102 43.5588" stroke="#262121" stroke-width="4.54" stroke-linecap="round"/>
<path d="M49.6509 34.0609C51.2476 29.4671 57.0698 20.9959 62.6738 23.7133C66.5312 25.5838 63.0149 34.4657 61.3798 36.605C59.0907 39.6 57.9739 41.2581 53.8537 41.2534C49.5032 41.2484 48.4775 38.1961 49.5525 34.3433" stroke="#262121" stroke-width="4.54" stroke-linecap="round"/>
<path d="M63.9899 22.4803C66.387 17.0852 73.3442 9.54423 79.9108 10.6617C84.8463 11.5017 90.2163 13.805 94.5758 16.572C96.9722 18.093 98.6491 20.1834 99.2685 22.8864C99.9058 25.6676 99.7545 28.4222 99.5666 31.2752C99.1809 37.132 98.2475 39.5111 96 44" stroke="#262121" stroke-width="4.54" stroke-linecap="round"/>
<path d="M92.543 42.1996C88.1729 41.762 85.43 47.944 83.9633 51.2864C82.9547 53.5849 82.2957 57.7375 83.2603 59.0631C84.0804 60.1903 84.9737 61.2241 86.1422 61.4161C88.7215 61.8399 90.7802 60.951 92.6319 58.7818C95.3765 55.5663 95.2733 54.948 96.8294 50.9723C98.9506 45.5526 94.7841 42.1368 91.862 42.1842" stroke="#262121" stroke-width="4.54" stroke-linecap="round"/>
</svg>
