<svg width="100%" height="100%" viewBox="0 0 96 90" fill="none" xmlns="http://www.w3.org/2000/svg">
<path d="M3.49414 5.51575C3.49414 7.97618 3.73312 10.1714 4.34014 12.5658C4.66832 13.8602 5.10414 16.6964 6.18881 17.6261C6.62335 17.9986 6.91497 18.4933 7.31681 18.8951C7.83132 19.4096 9.15439 17.0576 9.35349 16.7331C11.1648 13.7813 11.6722 10.8774 11.6722 7.48976C11.6722 7.18887 11.4952 5.62673 11.8288 5.53142C12.3898 5.37114 13.9268 8.30134 14.2102 8.74309C14.7486 9.5824 18.7983 20.3601 20.9782 17.9238C24.2839 14.2291 22.6156 7.93563 24.0802 3.54175" stroke="#262121" stroke-width="4.5" stroke-linecap="round"/>
<path d="M32.6289 4.04004V18.9861" stroke="#262121" stroke-width="4.5" stroke-linecap="round"/>
<path d="M33.7559 11.9359C35.4396 11.9359 37.1499 12.0244 38.8319 11.9359C39.5372 11.8988 40.7842 10.9163 41.3699 10.5259" stroke="#262121" stroke-width="4.5" stroke-linecap="round"/>
<path d="M41.9355 3.19385C41.9355 5.78975 41.9705 8.261 42.6405 10.7922C42.9743 12.0532 43.3455 13.3105 43.3455 14.6149C43.3455 15.9672 43.9096 17.1156 43.9096 18.4219" stroke="#262121" stroke-width="4.5" stroke-linecap="round"/>
<path d="M51.4941 18.1938C51.4941 13.6265 52.6434 8.15871 55.4941 4.2881C56.122 3.43568 57.889 2.84853 58.8592 3.42272C61.7857 5.15474 63.2491 10.382 64.1291 13.3597C64.524 14.696 65.0178 16.045 65.4941 17.3881" stroke="#262121" stroke-width="4.5" stroke-linecap="round"/>
<path d="M53.4941 10.1938C56.5106 10.1938 59.527 10.1938 62.4941 10.1938" stroke="#262121" stroke-width="4.5" stroke-linecap="round"/>
<path d="M70.2129 3.564C75.7807 3.564 81.2874 3 86.8509 3" stroke="#262121" stroke-width="4.5" stroke-linecap="round"/>
<path d="M79.4941 9.5C79.4941 12.2275 79.4941 14.4545 79.4941 17.1717C79.4941 17.8222 79.4941 18.3192 79.4941 19" stroke="#262121" stroke-width="4.5" stroke-linecap="round"/>
<path d="M2.59275 36.1938C2.59275 38.04 2.59275 39.8862 2.59275 41.7323C2.59275 43.1835 2.34619 44.9711 2.63281 46.3409C2.85676 47.4111 2.9078 48.5918 3.12357 49.6229C3.29738 50.4536 3.49414 51.3127 3.49414 52.1938" stroke="#262121" stroke-width="4.5" stroke-linecap="round"/>
<path d="M2.49414 36.2941C4.39524 36.2941 6.78035 35.8692 8.49436 36.7688C9.72305 37.4136 11.4419 37.5263 12.1978 38.7991C13.3349 40.7136 13.7972 43.423 13.2888 45.6019C12.7899 47.7401 11.2232 49.4538 9.21209 50.4799C7.73798 51.2321 6.84771 52.1938 5.07797 52.1938" stroke="#262121" stroke-width="4.5" stroke-linecap="round"/>
<path d="M44.4941 36.1938C44.6976 38.4317 47.4265 40.1033 48.4934 42.0238C49.1656 43.2338 49.3769 42.9184 50.3241 42.0238C51.5178 40.8965 52.1167 39.8467 52.8025 38.4751C53.1019 37.8763 53.6079 36.453 54.1262 36.1938" stroke="#262121" stroke-width="4.5" stroke-linecap="round"/>
<path d="M49.9863 43.189C49.9863 46.1856 49.9863 49.2652 49.9863 52.189" stroke="#262121" stroke-width="4.5" stroke-linecap="round"/>
<path d="M61.7788 38.4886C60.7766 39.946 59.4941 41.4352 59.4941 43.1132C59.4941 44.9374 61.377 46.6868 63.0481 47.9018C64.0098 48.6011 65.1222 49.1938 66.4751 49.1938C68.96 49.1938 69.6951 48.7566 70.7906 47.1635C72.731 44.3419 73.5573 40.7771 70.2829 38.3963C69.4196 37.7686 67.5616 37.1476 66.3482 37.1966C65.5578 37.2285 63.2894 37.7776 63.0481 38.304" stroke="#262121" stroke-width="4.5" stroke-linecap="round"/>
<path d="M22.7788 38.4886C21.7766 39.946 20.4941 41.4352 20.4941 43.1132C20.4941 44.9374 22.377 46.6868 24.0481 47.9018C25.0098 48.6011 26.1222 49.1938 27.4751 49.1938C29.96 49.1938 30.6951 48.7566 31.7906 47.1635C33.731 44.3419 34.5573 40.7771 31.2829 38.3963C30.4196 37.7686 28.5616 37.1476 27.3482 37.1966C26.5578 37.2285 24.2894 37.7776 24.0481 38.304" stroke="#262121" stroke-width="4.5" stroke-linecap="round"/>
<path d="M78.4941 36.4017C78.7003 38.134 79.91 39.9776 80.6506 41.5953C81.1673 42.7241 81.0973 44.0216 81.3534 45.2053C81.7211 46.9045 82.5158 49.9502 84.5322 50.8418C85.4244 51.2363 87.0875 51.4059 87.8387 50.7747C89.2324 49.6038 91.2597 47.0282 91.4168 45.3127C91.7403 41.7796 91.0255 38.5156 89.7076 35.1938" stroke="#262121" stroke-width="4.5" stroke-linecap="round"/>
<path d="M14.0043 73.1246C14.0043 71.184 13.1329 69.2936 9.93715 69.2115C7.55392 69.1502 5.87925 69.1945 4.03777 70.255C2.79437 70.971 4.85142 73.8978 5.58812 74.487C7.39798 75.9345 10.0335 76.7445 12.1922 77.9653C14.2337 79.12 15.8284 80.0061 15.4338 81.9944C15.1605 83.3718 13.955 85.8859 12.1922 86.6323C7.48113 88.627 3.49414 84.9083 3.49414 81.7336" stroke="#262121" stroke-width="4.5" stroke-linecap="round"/>
<path d="M21.4941 69.1938C25.3568 69.1938 28.7018 69.1938 32.4941 69.1938" stroke="#262121" stroke-width="4.5" stroke-linecap="round"/>
<path d="M27.6902 76C27.6902 78.8801 26.8994 82.2767 28.4941 85" stroke="#262121" stroke-width="4.5" stroke-linecap="round"/>
<path d="M22.4941 85.1938H35.4941" stroke="#262121" stroke-width="4.5" stroke-linecap="round"/>
<path d="M43.5766 86.1938C43.5766 81.1985 43.5766 76.2032 43.5766 71.2079C43.5766 70.8899 43.3554 69.3467 43.6376 69.1266C44.3258 68.5899 47.325 71.4526 47.8011 71.8621C49.3818 73.2217 49.6449 75.1129 50.714 76.7682C51.8748 78.5654 52.3334 80.4992 52.8491 82.5663C52.9903 83.132 52.983 84.8558 53.871 84.8558C54.923 84.8558 55.807 82.0516 55.9298 81.2431C56.3645 78.383 56.8764 75.3862 56.0671 72.546C55.6311 71.0158 55.3808 68.7282 55.3808 67.1938" stroke="#262121" stroke-width="4.5" stroke-linecap="round"/>
<path d="M73.4941 71.6591C73.4941 69.2806 71.697 67.094 69.2143 67.094C68.533 67.094 67.709 67.7706 67.2171 68.2353C66.2525 69.1462 66.5808 69.6594 66.2184 70.819C65.5227 73.0455 64.9345 75.6788 64.9345 77.9995C64.9345 78.8171 64.6443 80.1418 65.2198 80.7893C65.7133 81.3445 66.3452 82.2515 66.6464 82.9292C67.2765 84.3468 69.3684 85.3954 70.7994 85.6556C74.2708 86.2868 75.5984 85.3953 76.696 81.6453C76.8366 81.1648 77.7249 77.5757 77.0447 77.3813C76.2458 77.1531 74.5701 77.8851 73.7953 78.0788C72.8392 78.3178 71.4336 78.2636 70.6409 78.7921" stroke="#262121" stroke-width="4.5" stroke-linecap="round"/>
<path d="M86.5591 69.4131C86.5591 68.8937 86.2603 67.6886 86.9443 67.4794C87.9067 67.1849 89.6029 67.0601 90.5853 67.3901C91.5088 67.7004 93.4312 68.9798 93.4912 69.9486C93.5689 71.2038 92.1066 71.8765 91.4431 72.8789C90.0705 74.9523 88.1346 74.905 88.1346 77.4454C88.1346 78.225 88.6476 80.8763 89.395 81.1938" stroke="#262121" stroke-width="4.5" stroke-linecap="round"/>
<path d="M90.4941 87.1938H91.3122" stroke="#262121" stroke-width="4.5" stroke-linecap="round"/>
</svg>
