<svg width="100%" height="100%" viewBox="0 0 132 34" fill="none" xmlns="http://www.w3.org/2000/svg">
<path d="M122.863 8.50687C123.012 8.00917 123.07 6.76897 123.785 6.76418C124.792 6.75743 126.453 7.12306 127.3 7.72041C128.096 8.2819 129.572 10.0579 129.352 11.0033C129.067 12.2283 127.474 12.4545 126.551 13.2251C124.643 14.8192 122.801 14.22 122.074 16.6542C121.851 17.4012 121.584 20.0884 122.21 20.6065" stroke="#262121" stroke-width="4.5" stroke-linecap="round"/>
<path d="M121.545 26.6704L122.329 26.9045" stroke="#262121" stroke-width="4.5" stroke-linecap="round"/>
<path d="M7.34423 2.46878C5.1184 2.54288 1.31798 6.3707 2.78682 8.84976C4.38306 11.5439 8.59126 12.9136 11.6293 12.416C14.6276 11.925 16.8635 8.49839 15.4893 5.74352C14.2743 3.30796 10.9453 2.46883 8.4457 2.46891" stroke="#262121" stroke-width="4.5" stroke-linecap="round"/>
<path d="M7.77344 19C7.65099 20.1229 7.82869 21.229 7.71462 22.2751" stroke="#262121" stroke-width="4.5" stroke-linecap="round"/>
<path d="M2.44578 24.0872C6.36634 24.5148 10.1367 24.0872 14.4313 23.6043" stroke="#262121" stroke-width="4.5" stroke-linecap="round"/>
<path d="M23.6875 3.05786C23.2967 7.57029 25.3713 12.2387 24.8942 16.6139" stroke="#262121" stroke-width="4.5" stroke-linecap="round"/>
<path d="M25.0114 10.0637C26.7815 9.08281 28.6671 8.53004 30.6074 7.98907" stroke="#262121" stroke-width="4.5" stroke-linecap="round"/>
<path d="M21.8552 22.5473C20.7808 24.9641 20.4343 28.1876 18.9447 30.4999" stroke="#262121" stroke-width="4.5" stroke-linecap="round"/>
<path d="M23.1094 24.772C25.6927 25.4759 28.0568 26.5236 30.4224 27.7737C31.0076 28.0829 31.4453 28.5 32.1898 29.0437" stroke="#262121" stroke-width="4.5" stroke-linecap="round"/>
<path d="M38.2513 3.26256C39.4186 2.90625 40.6038 2.98217 41.8057 2.88778C44.0718 2.70985 47.752 2.60938 53.2539 2.60906" stroke="#262121" stroke-width="4.5" stroke-linecap="round"/>
<path d="M39.0918 4.60938C38.9336 6.38165 38.9073 7.92604 39.252 9.60938C39.6496 11.5514 40.7574 12.4918 41.7937 12.6603C45.9266 13.3324 49.7047 12.7365 53.7792 12.1774" stroke="#262121" stroke-width="4.5" stroke-linecap="round"/>
<path d="M37.4461 19.9872C43.5235 20.6499 49.6777 19.9872 55.7513 19.0001" stroke="#262121" stroke-width="4.5" stroke-linecap="round"/>
<path d="M47.752 26C47.752 27 47.752 28.5 47.7519 30.0001" stroke="#262121" stroke-width="4.5" stroke-linecap="round"/>
<path d="M66.877 25C66.877 26.25 66.877 28.125 66.8769 30.0001" stroke="#262121" stroke-width="4.5" stroke-linecap="round"/>
<path d="M74.877 25C74.877 26.25 74.877 28.125 74.8769 30.0001" stroke="#262121" stroke-width="4.5" stroke-linecap="round"/>
<path d="M69.8242 2.51763C68.9615 2.33741 67.3621 2.96636 66.8198 3.36493C66.0369 3.94032 65.2023 4.58103 64.6458 5.45977C64.1288 6.27593 63.7114 7.93224 64.101 8.84796C64.7158 10.2929 66.2781 11.032 67.6049 11.5012C69.4473 12.1528 72.193 12.1506 74.0199 12.0805C76.5252 11.9845 78.4809 9.38369 78.1168 6.57693C77.7662 3.87433 74.383 3.17067 72.5761 2.89704C72.0461 2.81678 69.7993 2.38303 68.9831 2.53101" stroke="#262121" stroke-width="4.5" stroke-linecap="round"/>
<path d="M62.4767 18.1227C64.405 18.4612 66.3792 18.9669 68.3234 19.1562C69.9524 19.3147 71.0112 19.3313 72.8139 19.4492C74.9843 19.5913 76.8048 19.7099 79.3321 19.3738" stroke="#262121" stroke-width="4.5" stroke-linecap="round"/>
<path d="M87.4465 15C86.9542 13.5 86.7337 11.658 86.9554 10.0305C87.2869 7.59649 87.8601 6.28822 89.4172 4.33767C89.9355 3.68841 91.3007 3.04923 92.024 3.39039C93.0903 3.89333 93.8978 5.10295 94.3784 6.13972C94.6135 6.64697 94.7743 7.45368 94.8961 7.99626C95.0284 8.58607 95.0384 9.45404 95.1029 10.0568C95.1416 10.4181 95.1543 10.7832 95.1776 11.1457C95.1908 11.3509 95.131 13.005 95.1846 12.9879C95.4211 12.9124 95.4683 10.207 95.5106 9.96407C95.6209 9.33202 95.8266 8.21108 96.0319 7.60267C96.4547 6.35036 97.1648 4.9068 98.0437 3.90726C98.8824 2.95352 99.9575 3.04122 100.937 3.78805C102.046 4.63409 102.463 6.07094 102.81 7.34806C103.284 9.08706 103.512 11.1465 103.575 12.2281C103.615 12.8482 103.575 13.5 103.575 14.5" stroke="#262121" stroke-width="4.5" stroke-linecap="round"/>
<path d="M110.445 3.00293C110.451 3.94121 110.693 6.00361 110.773 6.93658C110.902 8.44979 110.945 10.5199 110.945 11.999C110.931 13.5199 110.936 15.5289 110.945 16.999" stroke="#262121" stroke-width="4.5" stroke-linecap="round"/>
<path d="M99.8998 21.6412C98.7913 21.4567 98.3499 21.9647 97.305 22.3157C96.1497 22.7038 95.1921 23.0483 94.4283 24.0783C93.9387 24.7385 93.6566 25.5451 93.5332 26.3638C93.3874 27.3308 93.4996 27.6931 94.0953 28.4717C94.91 29.5365 96.6861 30.2761 97.8777 30.5973C100.251 31.2369 102.801 31.0228 105.23 30.971C106.772 30.9382 108.215 30.6349 108.943 29.096C109.512 27.8951 109.724 26.3816 109.077 25.1552C108.24 23.5664 106.279 22.4398 104.647 22.154C103.708 21.9898 102.809 21.6226 101.842 21.6288C99.9208 21.6411 98.1274 22.1399 96.2673 22.6283" stroke="#262121" stroke-width="4.5" stroke-linecap="round"/>
</svg>
